<svg width="33" height="33" viewBox="0 0 33 33" fill="none" xmlns="http://www.w3.org/2000/svg">
<path fill-rule="evenodd" clip-rule="evenodd" d="M1.61091 1.61091C2.64236 0.579462 4.04131 0 5.5 0H9.16667C10.6254 0 12.0243 0.579463 13.0558 1.61091C14.0872 2.64236 14.6667 4.04131 14.6667 5.5V9.16667C14.6667 10.6254 14.0872 12.0243 13.0558 13.0558C12.0243 14.0872 10.6254 14.6667 9.16667 14.6667H5.5C4.04131 14.6667 2.64236 14.0872 1.61091 13.0558C0.579463 12.0243 0 10.6254 0 9.16667V5.5C0 4.04131 0.579462 2.64236 1.61091 1.61091ZM5.5 3.66667C5.01377 3.66667 4.54745 3.85982 4.20364 4.20364C3.85982 4.54745 3.66667 5.01377 3.66667 5.5V9.16667C3.66667 9.6529 3.85982 10.1192 4.20364 10.463C4.54745 10.8068 5.01377 11 5.5 11H9.16667C9.6529 11 10.1192 10.8068 10.463 10.463C10.8068 10.1192 11 9.6529 11 9.16667V5.5C11 5.01377 10.8068 4.54745 10.463 4.20364C10.1192 3.85982 9.6529 3.66667 9.16667 3.66667H5.5ZM19.9442 1.61091C20.9757 0.579463 22.3746 0 23.8333 0H27.5C28.9587 0 30.3576 0.579463 31.3891 1.61091C32.4205 2.64236 33 4.04131 33 5.5V9.16667C33 10.6254 32.4205 12.0243 31.3891 13.0558C30.3576 14.0872 28.9587 14.6667 27.5 14.6667H23.8333C22.3746 14.6667 20.9757 14.0872 19.9442 13.0558C18.9128 12.0243 18.3333 10.6254 18.3333 9.16667V5.5C18.3333 4.04131 18.9128 2.64236 19.9442 1.61091ZM23.8333 3.66667C23.3471 3.66667 22.8808 3.85982 22.537 4.20364C22.1932 4.54745 22 5.01377 22 5.5V9.16667C22 9.6529 22.1932 10.1192 22.537 10.463C22.8808 10.8068 23.3471 11 23.8333 11H27.5C27.9862 11 28.4525 10.8068 28.7964 10.463C29.1402 10.1192 29.3333 9.6529 29.3333 9.16667V5.5C29.3333 5.01377 29.1402 4.54745 28.7964 4.20364C28.4525 3.85982 27.9862 3.66667 27.5 3.66667H23.8333ZM1.61091 19.9442C2.64236 18.9128 4.04131 18.3333 5.5 18.3333H9.16667C10.6254 18.3333 12.0243 18.9128 13.0558 19.9442C14.0872 20.9757 14.6667 22.3746 14.6667 23.8333V27.5C14.6667 28.9587 14.0872 30.3576 13.0558 31.3891C12.0243 32.4205 10.6254 33 9.16667 33H5.5C4.04131 33 2.64236 32.4205 1.61091 31.3891C0.579463 30.3576 0 28.9587 0 27.5V23.8333C0 22.3746 0.579463 20.9757 1.61091 19.9442ZM5.5 22C5.01377 22 4.54745 22.1932 4.20364 22.537C3.85982 22.8808 3.66667 23.3471 3.66667 23.8333V27.5C3.66667 27.9862 3.85982 28.4525 4.20364 28.7964C4.54745 29.1402 5.01377 29.3333 5.5 29.3333H9.16667C9.6529 29.3333 10.1192 29.1402 10.463 28.7964C10.8068 28.4525 11 27.9862 11 27.5V23.8333C11 23.3471 10.8068 22.8808 10.463 22.537C10.1192 22.1932 9.6529 22 9.16667 22H5.5ZM25.6667 18.3333C26.6792 18.3333 27.5 19.1541 27.5 20.1667V23.8333H31.1667C32.1792 23.8333 33 24.6541 33 25.6667C33 26.6792 32.1792 27.5 31.1667 27.5H27.5V31.1667C27.5 32.1792 26.6792 33 25.6667 33C24.6541 33 23.8333 32.1792 23.8333 31.1667V27.5H20.1667C19.1541 27.5 18.3333 26.6792 18.3333 25.6667C18.3333 24.6541 19.1541 23.8333 20.1667 23.8333H23.8333V20.1667C23.8333 19.1541 24.6541 18.3333 25.6667 18.3333Z" fill="white"/>
</svg>
