<svg width="45" height="45" viewBox="0 0 45 45" fill="none" xmlns="http://www.w3.org/2000/svg">
<circle cx="22.5" cy="22.5" r="22.5" fill="#3C8BE8"/>
<path fill-rule="evenodd" clip-rule="evenodd" d="M22.9788 11.7123L13.5616 16.9163L22.9788 22.1204V18.778C23.6249 18.8525 24.2552 19.0085 24.8507 19.2406C25.6956 19.5699 26.4453 20.0425 27.0632 20.6194C27.6806 21.1957 28.1521 21.8623 28.4659 22.5729C28.7791 23.2824 28.9327 24.0297 28.927 24.7748C28.9212 25.5199 28.7562 26.2646 28.4321 26.9689C28.1075 27.6744 27.6259 28.3333 26.9997 28.8996C26.373 29.4664 25.6161 29.9269 24.7664 30.2425C23.9165 30.5582 22.9989 30.7195 22.0682 30.712L22.0485 33.2873C23.2729 33.2972 24.4871 33.0853 25.6216 32.6639C26.7562 32.2425 27.7889 31.6197 28.6608 30.8311C29.5327 30.0425 30.2267 29.1036 30.7032 28.0679C31.1798 27.0322 31.4295 25.9201 31.4381 24.795C31.4468 23.67 31.2141 22.5539 30.7535 21.5107C30.2929 20.4675 29.6134 19.5175 28.7537 18.7149C27.894 17.9124 26.8709 17.273 25.743 16.8333C24.8612 16.4896 23.9288 16.2732 22.9788 16.1904V11.7123Z" fill="white"/>
</svg>
