<svg width="36" height="33" viewBox="0 0 36 33" fill="none" xmlns="http://www.w3.org/2000/svg">
<path fill-rule="evenodd" clip-rule="evenodd" d="M17.1258 0.230009C17.6695 -0.0766696 18.3305 -0.0766696 18.8742 0.230009L35.0742 9.36875C35.6456 9.69111 36 10.3027 36 10.9665C36 11.6303 35.6456 12.2419 35.0742 12.5642L31.2935 14.697C32.4348 18.3414 32.7009 22.2188 32.0589 26.003C31.9212 26.8145 31.2661 27.4323 30.4589 27.5119C26.2753 27.9242 22.331 29.6835 19.2017 32.533C18.5179 33.1557 17.482 33.1557 16.7982 32.533C15.5215 31.3703 14.109 30.3892 12.6 29.6069V31.0717C12.6 32.0812 11.7941 32.8995 10.8 32.8995C9.80589 32.8995 9 32.0812 9 31.0717V28.1731C7.875 27.8501 6.71833 27.6278 5.54274 27.5118C4.73571 27.4322 4.08072 26.8145 3.94297 26.0032C3.30053 22.2193 3.5665 18.342 4.7079 14.6978L0.925843 12.5642C0.354405 12.2419 0 11.6303 0 10.9665C0 10.3027 0.354405 9.69111 0.925843 9.36875L17.1258 0.230009ZM7.93024 16.5156C7.25902 18.9656 7.04772 21.5246 7.30994 24.0582C7.87836 24.1503 8.44208 24.2636 9 24.3975V17.3636C9 17.284 9.00509 17.2052 9.01505 17.1275L7.93024 16.5156ZM12.6 19.1499V25.5822C14.5263 26.3968 16.3438 27.4736 18 28.7891C21.1108 26.3184 24.7902 24.6899 28.6917 24.0581C28.9537 21.5244 28.7423 18.9652 28.0712 16.5151L18.8742 21.703C18.8741 21.703 18.8742 21.703 18.8742 21.703C18.3305 22.0096 17.6695 22.0096 17.1258 21.703C17.1258 21.703 17.1259 21.703 17.1258 21.703L12.6 19.1499ZM18 18.0143L30.4936 10.9665L18 3.91862L5.50643 10.9665L7.74968 12.232C7.76253 12.2388 7.77531 12.2458 7.78802 12.253L11.9704 14.6126L17.1259 11.7046C17.9949 11.2144 19.0908 11.5324 19.5735 12.4148C20.0563 13.2972 19.7431 14.4099 18.8741 14.9001L15.6768 16.7036L18 18.0143Z" fill="white"/>
</svg>
