<svg width="36" height="33" viewBox="0 0 36 33" fill="none" xmlns="http://www.w3.org/2000/svg">
<path fill-rule="evenodd" clip-rule="evenodd" d="M1.58162 1.81228C2.59432 0.651895 3.96783 0 5.4 0H30.6C32.0322 0 33.4057 0.651895 34.4184 1.81228C35.4311 2.97266 36 4.54647 36 6.1875V12.375C36 12.922 35.8104 13.4466 35.4728 13.8334C35.1352 14.2202 34.6774 14.4375 34.2 14.4375C33.7226 14.4375 33.2648 14.6548 32.9272 15.0416C32.5896 15.4284 32.4 15.953 32.4 16.5C32.4 17.047 32.5896 17.5716 32.9272 17.9584C33.2648 18.3452 33.7226 18.5625 34.2 18.5625C35.1941 18.5625 36 19.4859 36 20.625V26.8125C36 28.4535 35.4311 30.0273 34.4184 31.1877C33.4057 32.3481 32.0322 33 30.6 33H5.4C3.96783 33 2.59432 32.3481 1.58162 31.1877C0.568927 30.0273 0 28.4535 0 26.8125V20.625C0 19.4859 0.805887 18.5625 1.8 18.5625C2.27739 18.5625 2.73523 18.3452 3.07279 17.9584C3.41036 17.5716 3.6 17.047 3.6 16.5C3.6 15.953 3.41036 15.4284 3.07279 15.0416C2.73523 14.6548 2.27739 14.4375 1.8 14.4375C0.805887 14.4375 0 13.5141 0 12.375V6.1875C0 4.54647 0.568927 2.97266 1.58162 1.81228ZM25.2 28.875V26.8125C25.2 25.6734 24.3941 24.75 23.4 24.75C22.4059 24.75 21.6 25.6734 21.6 26.8125V28.875H5.4C4.92261 28.875 4.46477 28.6577 4.12721 28.2709C3.78964 27.8841 3.6 27.3595 3.6 26.8125V22.3336C4.35223 22.0289 5.04345 21.534 5.61838 20.8752C6.63107 19.7148 7.2 18.141 7.2 16.5C7.2 14.859 6.63107 13.2852 5.61838 12.1248C5.04345 11.466 4.35223 10.9711 3.6 10.6664V6.1875C3.6 5.64049 3.78964 5.11589 4.12721 4.72909C4.46477 4.3423 4.92261 4.125 5.4 4.125H21.6V6.1875C21.6 7.32659 22.4059 8.25 23.4 8.25C24.3941 8.25 25.2 7.32659 25.2 6.1875V4.125H30.6C31.0774 4.125 31.5352 4.3423 31.8728 4.72909C32.2104 5.11589 32.4 5.64049 32.4 6.1875V10.6664C31.6478 10.9711 30.9566 11.466 30.3816 12.1248C29.3689 13.2852 28.8 14.859 28.8 16.5C28.8 18.141 29.3689 19.7148 30.3816 20.8752C30.9566 21.534 31.6478 22.0289 32.4 22.3336V26.8125C32.4 27.3595 32.2104 27.8841 31.8728 28.2709C31.5352 28.6577 31.0774 28.875 30.6 28.875H25.2ZM23.4 12.375C24.3941 12.375 25.2 13.2984 25.2 14.4375V18.5625C25.2 19.7016 24.3941 20.625 23.4 20.625C22.4059 20.625 21.6 19.7016 21.6 18.5625V14.4375C21.6 13.2984 22.4059 12.375 23.4 12.375Z" fill="#509AF1"/>
</svg>
