<svg width="22" height="28" viewBox="0 0 22 28" fill="none" xmlns="http://www.w3.org/2000/svg">
<path fill-rule="evenodd" clip-rule="evenodd" d="M7 3H18C18.5523 3 19 3.44771 19 4V24C19 24.5523 18.5523 25 18 25H7C6.44772 25 6 24.5523 6 24V23H3V24C3 26.2091 4.79086 28 7 28H18C20.2091 28 22 26.2091 22 24V4C22 1.79086 20.2091 0 18 0H7C4.79086 0 3 1.79086 3 4V5H6V4C6 3.44772 6.44772 3 7 3Z" fill="#F44949"/>
<path fill-rule="evenodd" clip-rule="evenodd" d="M9.05372 6.31819L15.6944 13.2318C16.1019 13.6561 16.1019 14.3439 15.6944 14.7682L9.05372 21.6818C8.64621 22.1061 7.98552 22.1061 7.57802 21.6818C7.17051 21.2576 7.17051 20.5697 7.57802 20.1454L12.4373 15.0864L1.04348 15.0864C0.467181 15.0864 0 14.6 0 14C0 13.4 0.467181 12.9136 1.04348 12.9136L12.4373 12.9136L7.57802 7.85455C7.17051 7.4303 7.17051 6.74245 7.57802 6.31819C7.98552 5.89394 8.64621 5.89394 9.05372 6.31819Z" fill="#F44949"/>
</svg>
