<svg width="37" height="33" viewBox="0 0 37 33" fill="none" xmlns="http://www.w3.org/2000/svg">
<path fill-rule="evenodd" clip-rule="evenodd" d="M6.28122 0.795672C7.51571 0.27037 8.83883 0 10.175 0C11.5112 0 12.8344 0.27037 14.0689 0.795672C15.3033 1.32097 17.5552 3.2519 18.5 4.22253M18.5 4.22253L19.6302 3.06154C21.5383 1.10128 24.1264 2.17493e-05 26.825 2.17493e-05C29.5236 2.17493e-05 32.1116 1.10128 34.0198 3.06154C35.928 5.0218 37 7.68049 37 10.4527C37 13.2249 35.928 15.8836 34.0198 17.8439L19.8082 32.4434C19.4612 32.7998 18.9907 33 18.5 33C18.0094 33 17.5388 32.7998 17.1919 32.4434L2.98022 17.8439C2.03538 16.8733 1.28588 15.721 0.774535 14.4528C0.263187 13.1846 0 11.8254 0 10.4527C0 9.08004 0.263187 7.72081 0.774535 6.45263C1.28588 5.18446 2.03537 4.03217 2.98021 3.06155L6.28122 0.795672L5.59651 5.74922C6.79903 4.51387 8.47441 3.80096 10.175 3.80096C11.8757 3.80096 13.5511 4.51387 14.7536 5.74922L17.1919 8.25406C17.5388 8.61047 18.0094 8.8107 18.5 8.8107C18.9907 8.8107 19.4612 8.61047 19.8082 8.25406L22.2464 5.74923C23.4608 4.50179 25.1077 3.80098 26.825 3.80098C28.5423 3.80098 30.1892 4.50179 31.4035 5.74923C32.6178 6.99667 33.3 8.68856 33.3 10.4527C33.3 12.2169 32.6178 13.9088 31.4035 15.1562L18.5 28.4118L5.5965 15.1562C4.99524 14.5385 4.51828 13.8052 4.19287 12.9982C3.86747 12.1912 3.69999 11.3262 3.69999 10.4527C3.69999 9.57919 3.86747 8.71423 4.19287 7.90721C4.51828 7.10018 4.99524 6.36689 5.59651 5.74922L6.28122 0.795672M6.28122 0.795672C5.04673 1.32097 3.92504 2.09093 2.98021 3.06155L6.28122 0.795672Z" fill="white"/>
</svg>
