<svg width="304" height="273" viewBox="0 0 304 273" fill="none" xmlns="http://www.w3.org/2000/svg">
<path fill-rule="evenodd" clip-rule="evenodd" d="M45.6 30.3333C41.5687 30.3333 37.7025 31.9312 34.852 34.7755C32.0014 37.6198 30.4 41.4775 30.4 45.5V227.5C30.4 231.522 32.0014 235.38 34.852 238.224C37.7025 241.069 41.5687 242.667 45.6 242.667H215.408C213.698 237.841 212.8 232.716 212.8 227.5V45.5C212.8 41.4776 211.199 37.6199 208.348 34.7755C205.497 31.9312 201.631 30.3333 197.6 30.3333H45.6ZM45.6 0C33.5061 0 21.9076 4.79373 13.3559 13.3266C4.80427 21.8595 0 33.4327 0 45.5V227.5C0 239.567 4.80427 251.14 13.3559 259.673C21.9076 268.206 33.5061 273 45.6 273H258.4C270.494 273 282.092 268.206 290.644 259.673C299.196 251.14 304 239.567 304 227.5V91C304 78.9326 299.196 67.3595 290.644 58.8266C282.092 50.2937 270.494 45.5 258.4 45.5H243.2C243.2 33.4326 238.396 21.8595 229.844 13.3266C221.292 4.79374 209.694 0 197.6 0H45.6ZM243.2 75.8333V227.5C243.2 231.522 244.801 235.38 247.652 238.224C250.503 241.069 254.369 242.667 258.4 242.667C262.431 242.667 266.297 241.069 269.148 238.224C271.999 235.38 273.6 231.522 273.6 227.5V91C273.6 86.9776 271.999 83.1199 269.148 80.2755C266.297 77.4312 262.431 75.8333 258.4 75.8333H243.2ZM60.8 75.8333C60.8 67.457 67.6053 60.6667 76 60.6667H167.2C175.595 60.6667 182.4 67.457 182.4 75.8333V136.5C182.4 144.876 175.595 151.667 167.2 151.667H76C67.6053 151.667 60.8 144.876 60.8 136.5V75.8333ZM91.2 91V121.333H152V91H91.2ZM60.8 197.167C60.8 188.79 67.6053 182 76 182H167.2C175.595 182 182.4 188.79 182.4 197.167C182.4 205.543 175.595 212.333 167.2 212.333H76C67.6053 212.333 60.8 205.543 60.8 197.167Z" fill="white"/>
</svg>
