<svg width="29" height="26" viewBox="0 0 29 26" fill="none" xmlns="http://www.w3.org/2000/svg">
<path fill-rule="evenodd" clip-rule="evenodd" d="M4.35 2.88889C3.96544 2.88889 3.59662 3.04107 3.3247 3.31196C3.05277 3.58284 2.9 3.95024 2.9 4.33333V21.6667C2.9 22.0498 3.05277 22.4172 3.3247 22.688C3.59662 22.9589 3.96544 23.1111 4.35 23.1111H20.5488C20.3856 22.6515 20.3 22.1635 20.3 21.6667V4.33333C20.3 3.95024 20.1472 3.58284 19.8753 3.31196C19.6034 3.04107 19.2346 2.88889 18.85 2.88889H4.35ZM4.35 0C3.19631 0 2.08987 0.456546 1.27409 1.2692C0.458302 2.08186 0 3.18406 0 4.33333V21.6667C0 22.8159 0.458302 23.9181 1.27409 24.7308C2.08987 25.5435 3.19631 26 4.35 26H24.65C25.8037 26 26.9101 25.5435 27.7259 24.7308C28.5417 23.9181 29 22.8159 29 21.6667V8.66667C29 7.51739 28.5417 6.41519 27.7259 5.60254C26.9101 4.78988 25.8037 4.33333 24.65 4.33333H23.2C23.2 3.18406 22.7417 2.08186 21.9259 1.2692C21.1101 0.456546 20.0037 0 18.85 0H4.35ZM23.2 7.22222V21.6667C23.2 22.0498 23.3528 22.4172 23.6247 22.688C23.8966 22.9589 24.2654 23.1111 24.65 23.1111C25.0346 23.1111 25.4034 22.9589 25.6753 22.688C25.9472 22.4172 26.1 22.0498 26.1 21.6667V8.66667C26.1 8.28358 25.9472 7.91618 25.6753 7.64529C25.4034 7.3744 25.0346 7.22222 24.65 7.22222H23.2ZM5.8 7.22222C5.8 6.42448 6.44919 5.77778 7.25 5.77778H15.95C16.7508 5.77778 17.4 6.42448 17.4 7.22222V13C17.4 13.7977 16.7508 14.4444 15.95 14.4444H7.25C6.44919 14.4444 5.8 13.7977 5.8 13V7.22222ZM8.7 8.66667V11.5556H14.5V8.66667H8.7ZM5.8 18.7778C5.8 17.98 6.44919 17.3333 7.25 17.3333H15.95C16.7508 17.3333 17.4 17.98 17.4 18.7778C17.4 19.5755 16.7508 20.2222 15.95 20.2222H7.25C6.44919 20.2222 5.8 19.5755 5.8 18.7778Z" fill="#509AF1"/>
</svg>
