<svg width="31" height="31" viewBox="0 0 31 31" fill="none" xmlns="http://www.w3.org/2000/svg">
<path d="M2 5C2 4.20435 2.31607 3.44129 2.87868 2.87868C3.44129 2.31607 4.20435 2 5 2H9.92C10.2347 2.00024 10.5413 2.09944 10.7965 2.28357C11.0517 2.46771 11.2426 2.72743 11.342 3.026L13.589 9.7655C13.7029 10.108 13.6894 10.4801 13.5511 10.8135C13.4128 11.1468 13.1589 11.4192 12.836 11.5805L9.4505 13.2755C11.11 16.9483 14.0517 19.89 17.7245 21.5495L19.4195 18.164C19.5808 17.8411 19.8532 17.5872 20.1865 17.4489C20.5199 17.3106 20.892 17.2971 21.2345 17.411L27.974 19.658C28.2728 19.7575 28.5327 19.9486 28.7169 20.2041C28.901 20.4596 29.0001 20.7666 29 21.0815V26C29 26.7956 28.6839 27.5587 28.1213 28.1213C27.5587 28.6839 26.7956 29 26 29H24.5C12.074 29 2 18.926 2 6.5V5Z" stroke="#509AF1" stroke-width="3" stroke-linecap="round" stroke-linejoin="round"/>
</svg>
