<svg width="26" height="26" viewBox="0 0 26 26" fill="none" xmlns="http://www.w3.org/2000/svg">
<path fill-rule="evenodd" clip-rule="evenodd" d="M13 0.75C13.9665 0.75 14.75 1.5335 14.75 2.5V11.25H23.5C24.4665 11.25 25.25 12.0335 25.25 13C25.25 13.9665 24.4665 14.75 23.5 14.75H14.75V23.5C14.75 24.4665 13.9665 25.25 13 25.25C12.0335 25.25 11.25 24.4665 11.25 23.5V14.75H2.5C1.5335 14.75 0.75 13.9665 0.75 13C0.75 12.0335 1.5335 11.25 2.5 11.25H11.25V2.5C11.25 1.5335 12.0335 0.75 13 0.75Z" fill="#032042"/>
</svg>
