<svg width="27" height="27" viewBox="0 0 27 27" fill="none" xmlns="http://www.w3.org/2000/svg">
<path d="M19.8889 7.11111H22.4444C23.1222 7.11111 23.7722 7.38036 24.2515 7.85962C24.7308 8.33888 25 8.98889 25 9.66667V17.3333C25 18.0111 24.7308 18.6611 24.2515 19.1404C23.7722 19.6196 23.1222 19.8889 22.4444 19.8889H19.8889V25L14.7778 19.8889H9.66667C9.33103 19.8892 8.99863 19.8233 8.68857 19.6948C8.37851 19.5663 8.09689 19.3778 7.85989 19.1401M7.85989 19.1401L12.2222 14.7778H17.3333C18.0111 14.7778 18.6611 14.5085 19.1404 14.0293C19.6196 13.55 19.8889 12.9 19.8889 12.2222V4.55556C19.8889 3.87778 19.6196 3.22776 19.1404 2.7485C18.6611 2.26925 18.0111 2 17.3333 2H4.55556C3.87778 2 3.22776 2.26925 2.7485 2.7485C2.26925 3.22776 2 3.87778 2 4.55556V12.2222C2 12.9 2.26925 13.55 2.7485 14.0293C3.22776 14.5085 3.87778 14.7778 4.55556 14.7778H7.11111V19.8889L7.85989 19.1401Z" stroke="#032042" stroke-width="3" stroke-linecap="round" stroke-linejoin="round"/>
</svg>
