<svg width="24" height="24" viewBox="0 0 24 24" fill="none" xmlns="http://www.w3.org/2000/svg">
<path fill-rule="evenodd" clip-rule="evenodd" d="M1.17157 1.17157C1.92172 0.421427 2.93913 0 4 0H20C21.0609 0 22.0783 0.421427 22.8284 1.17157C23.5786 1.92172 24 2.93913 24 4V20C24 21.0609 23.5786 22.0783 22.8284 22.8284C22.0783 23.5786 21.0609 24 20 24H4C2.93913 24 1.92172 23.5786 1.17157 22.8284C0.421427 22.0783 0 21.0609 0 20V4C0 2.93913 0.421427 1.92172 1.17157 1.17157ZM16 2.66667H8V15.176L11.4037 13.4741C11.7791 13.2864 12.2209 13.2864 12.5963 13.4741L16 15.176V2.66667ZM5.33333 2.66667H4C3.64638 2.66667 3.30724 2.80714 3.05719 3.05719C2.80714 3.30724 2.66667 3.64638 2.66667 4V20C2.66667 20.3536 2.80714 20.6928 3.05719 20.9428C3.30724 21.1929 3.64638 21.3333 4 21.3333H20C20.3536 21.3333 20.6928 21.1929 20.9428 20.9428C21.1929 20.6928 21.3333 20.3536 21.3333 20V4C21.3333 3.64638 21.1929 3.30724 20.9428 3.05719C20.6928 2.80714 20.3536 2.66667 20 2.66667H18.6667V17.3333C18.6667 17.7954 18.4274 18.2246 18.0343 18.4675C17.6412 18.7105 17.1504 18.7326 16.737 18.5259L12 16.1574L7.26295 18.5259C6.84963 18.7326 6.35878 18.7105 5.96569 18.4675C5.5726 18.2246 5.33333 17.7954 5.33333 17.3333V2.66667Z" fill="#032042"/>
</svg>
