<svg width="41" height="41" viewBox="0 0 41 41" fill="none" xmlns="http://www.w3.org/2000/svg">
<path fill-rule="evenodd" clip-rule="evenodd" d="M24.6 4.1C24.0563 4.1 23.5349 4.31598 23.1504 4.70043C22.766 5.08488 22.55 5.60631 22.55 6.15V8.2C22.55 9.28739 22.118 10.3302 21.3491 11.0991C20.5802 11.868 19.5374 12.3 18.45 12.3H12.3V18.45C12.3 19.5374 11.868 20.5802 11.0991 21.3491C10.3302 22.118 9.28739 22.55 8.2 22.55H6.15C5.60631 22.55 5.08488 22.766 4.70043 23.1504C4.31598 23.5349 4.1 24.0563 4.1 24.6C4.1 25.1437 4.31598 25.6651 4.70043 26.0496C5.08488 26.434 5.60631 26.65 6.15 26.65H8.2C9.28739 26.65 10.3302 27.082 11.0991 27.8509C11.868 28.6198 12.3 29.6626 12.3 30.75V36.9H18.45V34.85C18.45 33.2189 19.0979 31.6546 20.2513 30.5013C21.4046 29.3479 22.9689 28.7 24.6 28.7C26.2311 28.7 27.7954 29.3479 28.9487 30.5013C30.1021 31.6546 30.75 33.2189 30.75 34.85V36.9H36.9V30.75H34.85C33.2189 30.75 31.6546 30.1021 30.5013 28.9487C29.3479 27.7954 28.7 26.2311 28.7 24.6C28.7 22.9689 29.3479 21.4046 30.5013 20.2513C31.6546 19.0979 33.2189 18.45 34.85 18.45H36.9V12.3H30.75C29.6626 12.3 28.6198 11.868 27.8509 11.0991C27.082 10.3302 26.65 9.28739 26.65 8.2V6.15C26.65 5.60631 26.434 5.08488 26.0496 4.70043C25.6651 4.31598 25.1437 4.1 24.6 4.1ZM20.2513 1.80129C21.4046 0.647945 22.9689 0 24.6 0C26.2311 0 27.7954 0.647945 28.9487 1.80129C30.1021 2.95464 30.75 4.51892 30.75 6.15V8.2H36.9C37.9874 8.2 39.0302 8.63196 39.7991 9.40086C40.568 10.1698 41 11.2126 41 12.3V18.45C41 19.5374 40.568 20.5802 39.7991 21.3491C39.0302 22.118 37.9874 22.55 36.9 22.55H34.85C34.3063 22.55 33.7849 22.766 33.4004 23.1504C33.016 23.5349 32.8 24.0563 32.8 24.6C32.8 25.1437 33.016 25.6651 33.4004 26.0496C33.7849 26.434 34.3063 26.65 34.85 26.65H36.9C37.9874 26.65 39.0302 27.082 39.7991 27.8509C40.568 28.6198 41 29.6626 41 30.75V36.9C41 37.9874 40.568 39.0302 39.7991 39.7991C39.0302 40.568 37.9874 41 36.9 41H30.75C29.6626 41 28.6198 40.568 27.8509 39.7991C27.082 39.0302 26.65 37.9874 26.65 36.9V34.85C26.65 34.3063 26.434 33.7849 26.0496 33.4004C25.6651 33.016 25.1437 32.8 24.6 32.8C24.0563 32.8 23.5349 33.016 23.1504 33.4004C22.766 33.7849 22.55 34.3063 22.55 34.85V36.9C22.55 37.9874 22.118 39.0302 21.3491 39.7991C20.5802 40.568 19.5374 41 18.45 41H12.3C11.2126 41 10.1698 40.568 9.40086 39.7991C8.63196 39.0302 8.2 37.9874 8.2 36.9V30.75H6.15C4.51892 30.75 2.95464 30.1021 1.80129 28.9487C0.647945 27.7954 0 26.2311 0 24.6C0 22.9689 0.647945 21.4046 1.80129 20.2513C2.95464 19.0979 4.51892 18.45 6.15 18.45H8.2V12.3C8.2 11.2126 8.63196 10.1698 9.40086 9.40086C10.1698 8.63196 11.2126 8.2 12.3 8.2H18.45V6.15C18.45 4.51892 19.0979 2.95464 20.2513 1.80129Z" fill="white"/>
</svg>
