<svg width="38" height="38" viewBox="0 0 38 38" fill="none" xmlns="http://www.w3.org/2000/svg">
<path fill-rule="evenodd" clip-rule="evenodd" d="M6.33333 0C7.49927 0 8.44444 0.945177 8.44444 2.11111V21.4733C9.32668 21.7853 10.1374 22.2918 10.8117 22.9661C11.9994 24.1538 12.6667 25.7647 12.6667 27.4444C12.6667 29.1241 11.9994 30.7351 10.8117 31.9228C10.1374 32.5971 9.32668 33.1036 8.44444 33.4156V35.8889C8.44444 37.0548 7.49927 38 6.33333 38C5.1674 38 4.22222 37.0548 4.22222 35.8889V33.4156C3.33998 33.1036 2.52929 32.5971 1.85499 31.9228C0.66726 30.7351 0 29.1241 0 27.4444C0 25.7647 0.66726 24.1538 1.85499 22.9661C2.52929 22.2918 3.33998 21.7853 4.22222 21.4733V2.11111C4.22222 0.945177 5.1674 0 6.33333 0ZM6.33333 29.5556C6.89323 29.5556 7.4302 29.3331 7.82611 28.9372C8.22202 28.5413 8.44444 28.0043 8.44444 27.4444C8.44444 26.8845 8.22202 26.3476 7.82611 25.9517C7.4302 25.5558 6.89323 25.3333 6.33333 25.3333C5.77343 25.3333 5.23646 25.5558 4.84055 25.9517C4.44464 26.3476 4.22222 26.8845 4.22222 27.4444C4.22222 28.0043 4.44464 28.5413 4.84055 28.9372C5.23646 29.3331 5.77343 29.5556 6.33333 29.5556ZM19 0C20.1659 0 21.1111 0.945177 21.1111 2.11111V4.58443C21.9934 4.89637 22.804 5.40291 23.4783 6.07721C24.6661 7.26494 25.3333 8.87585 25.3333 10.5556C25.3333 12.2353 24.6661 13.8462 23.4783 15.0339C22.804 15.7082 21.9934 16.2147 21.1111 16.5267V35.8889C21.1111 37.0548 20.1659 38 19 38C17.8341 38 16.8889 37.0548 16.8889 35.8889V16.5267C16.0066 16.2147 15.196 15.7082 14.5217 15.0339C13.3339 13.8462 12.6667 12.2353 12.6667 10.5556C12.6667 8.87585 13.3339 7.26494 14.5217 6.07721C15.196 5.40291 16.0066 4.89637 16.8889 4.58443V2.11111C16.8889 0.945177 17.8341 0 19 0ZM19 12.6667C19.5599 12.6667 20.0969 12.4442 20.4928 12.0483C20.8887 11.6524 21.1111 11.1155 21.1111 10.5556C21.1111 9.99566 20.8887 9.45869 20.4928 9.06278C20.0969 8.66686 19.5599 8.44444 19 8.44444C18.4401 8.44444 17.9031 8.66686 17.5072 9.06278C17.1113 9.45869 16.8889 9.99566 16.8889 10.5556C16.8889 11.1155 17.1113 11.6524 17.5072 12.0483C17.9031 12.4442 18.4401 12.6667 19 12.6667ZM31.6667 0C32.8326 0 33.7778 0.945177 33.7778 2.11111V21.4733C34.66 21.7853 35.4707 22.2918 36.145 22.9661C37.3327 24.1538 38 25.7647 38 27.4444C38 29.1242 37.3327 30.7351 36.145 31.9228C35.4707 32.5971 34.66 33.1036 33.7778 33.4156V35.8889C33.7778 37.0548 32.8326 38 31.6667 38C30.5007 38 29.5556 37.0548 29.5556 35.8889V33.4156C28.6733 33.1036 27.8626 32.5971 27.1883 31.9228C26.0006 30.7351 25.3333 29.1242 25.3333 27.4444C25.3333 25.7647 26.0006 24.1538 27.1883 22.9661C27.8626 22.2918 28.6733 21.7853 29.5556 21.4733V2.11111C29.5556 0.945177 30.5007 0 31.6667 0ZM31.6667 29.5556C32.2266 29.5556 32.7635 29.3331 33.1594 28.9372C33.5554 28.5413 33.7778 28.0043 33.7778 27.4444C33.7778 26.8845 33.5554 26.3476 33.1594 25.9517C32.7635 25.5558 32.2266 25.3333 31.6667 25.3333C31.1068 25.3333 30.5698 25.5558 30.1739 25.9517C29.778 26.3476 29.5556 26.8845 29.5556 27.4444C29.5556 28.0043 29.778 28.5413 30.1739 28.9372C30.5698 29.3331 31.1068 29.5556 31.6667 29.5556Z" fill="#032042"/>
</svg>
