<svg width="28" height="27" viewBox="0 0 28 27" fill="none" xmlns="http://www.w3.org/2000/svg">
<path d="M12.7779 2.88961C13.1634 1.70346 14.8381 1.70346 15.2224 2.88961L17.1746 8.90923C17.2586 9.16744 17.422 9.39242 17.6412 9.55202C17.8605 9.71163 18.1246 9.79768 18.3956 9.79788H24.7124C25.9578 9.79788 26.4745 11.3949 25.4681 12.129L20.3581 15.8484C20.1386 16.0083 19.9752 16.2337 19.8914 16.4924C19.8076 16.751 19.8077 17.0296 19.8916 17.2883L21.8425 23.3079C22.2281 24.4953 20.8722 25.4819 19.8659 24.7478L14.7558 21.0283C14.5362 20.8683 14.2716 20.7821 14.0001 20.7821C13.7286 20.7821 13.464 20.8683 13.2444 21.0283L8.13437 24.7478C7.12804 25.4819 5.77214 24.494 6.1577 23.3079L8.10867 17.2883C8.19256 17.0296 8.19261 16.751 8.10881 16.4924C8.025 16.2337 7.86164 16.0083 7.64213 15.8484L2.53209 12.129C1.52448 11.3949 2.04371 9.79788 3.2878 9.79788H9.60338C9.87462 9.79795 10.1389 9.71202 10.3585 9.5524C10.578 9.39278 10.7415 9.16765 10.8256 8.90923L12.7779 2.88961Z" stroke="#032042" stroke-width="3" stroke-linecap="round" stroke-linejoin="round"/>
</svg>
