<svg width="29" height="29" viewBox="0 0 29 29" fill="none" xmlns="http://www.w3.org/2000/svg">
<path d="M2.03842 2.03842C0 4.07696 0 7.35823 0 13.92V15.08C0 21.6418 0 24.9231 2.03842 26.9615C4.07696 29 7.35823 29 13.92 29H15.08C21.6418 29 24.9231 29 26.9615 26.9615C29 24.9231 29 21.6418 29 15.08V13.92C29 7.35817 29 4.0769 26.9615 2.03842C24.9231 1.23467e-07 21.6418 0 15.08 0H13.92C7.35817 0 4.07689 1.23467e-07 2.03842 2.03842ZM4.89375 8.82092H8.2046C8.31335 14.3551 10.7541 16.6992 12.6875 17.1826V8.82085H15.805V13.5937C17.7141 13.3884 19.72 11.2134 20.3966 8.82085H23.5141C23.2591 10.0616 22.7508 11.2365 22.021 12.2719C21.2912 13.3073 20.3557 14.181 19.2729 14.8384C20.4819 15.4386 21.5498 16.2885 22.4059 17.3321C23.262 18.3757 23.8868 19.5891 24.2391 20.8921H20.8075C20.4913 19.7603 19.8478 18.7471 18.9578 17.9796C18.0679 17.2122 16.971 16.7247 15.805 16.5784V20.8921H15.4304C8.82085 20.8921 5.05085 16.3609 4.89375 8.82085V8.82092Z" fill="white" fill-opacity="0.7"/>
</svg>
