<svg width="40" height="33" viewBox="0 0 40 33" fill="none" xmlns="http://www.w3.org/2000/svg">
<path fill-rule="evenodd" clip-rule="evenodd" d="M20 3.66667C19.0356 3.66667 18.1107 4.05298 17.4287 4.74061C16.7468 5.42824 16.3636 6.36087 16.3636 7.33333C16.3636 8.30579 16.7468 9.23843 17.4287 9.92606C18.1107 10.6137 19.0356 11 20 11C20.9644 11 21.8893 10.6137 22.5713 9.92606C23.2532 9.23843 23.6364 8.30579 23.6364 7.33333C23.6364 6.36087 23.2532 5.42824 22.5713 4.74061C21.8893 4.05298 20.9644 3.66667 20 3.66667ZM14.8574 2.14788C16.2213 0.772617 18.0712 0 20 0C21.9288 0 23.7787 0.772617 25.1426 2.14788C26.5065 3.52315 27.2727 5.38841 27.2727 7.33333C27.2727 9.27825 26.5065 11.1435 25.1426 12.5188C23.7787 13.8941 21.9288 14.6667 20 14.6667C18.0712 14.6667 16.2213 13.8941 14.8574 12.5188C13.4935 11.1435 12.7273 9.27825 12.7273 7.33333C12.7273 5.38841 13.4935 3.52315 14.8574 2.14788ZM7.27273 11C6.79052 11 6.32805 11.1932 5.98708 11.537C5.6461 11.8808 5.45455 12.3471 5.45455 12.8333C5.45455 13.3196 5.6461 13.7859 5.98708 14.1297C6.32805 14.4735 6.79052 14.6667 7.27273 14.6667C7.75494 14.6667 8.2174 14.4735 8.55838 14.1297C8.89935 13.7859 9.09091 13.3196 9.09091 12.8333C9.09091 12.3471 8.89935 11.8808 8.55838 11.537C8.2174 11.1932 7.75494 11 7.27273 11ZM3.41578 8.94425C4.43871 7.9128 5.82609 7.33333 7.27273 7.33333C8.71936 7.33333 10.1067 7.9128 11.1297 8.94425C12.1526 9.9757 12.7273 11.3746 12.7273 12.8333C12.7273 14.292 12.1526 15.691 11.1297 16.7224C10.1067 17.7539 8.71936 18.3333 7.27273 18.3333C5.82609 18.3333 4.43871 17.7539 3.41578 16.7224C2.39286 15.691 1.81818 14.292 1.81818 12.8333C1.81818 11.3746 2.39286 9.9757 3.41578 8.94425ZM32.7273 11C32.2451 11 31.7826 11.1932 31.4416 11.537C31.1006 11.8808 30.9091 12.3471 30.9091 12.8333C30.9091 13.3196 31.1006 13.7859 31.4416 14.1297C31.7826 14.4735 32.2451 14.6667 32.7273 14.6667C33.2095 14.6667 33.6719 14.4735 34.0129 14.1297C34.3539 13.7859 34.5455 13.3196 34.5455 12.8333C34.5455 12.3471 34.3539 11.8808 34.0129 11.537C33.6719 11.1932 33.2095 11 32.7273 11ZM28.8703 8.94425C29.8933 7.9128 31.2806 7.33333 32.7273 7.33333C34.1739 7.33333 35.5613 7.9128 36.5842 8.94425C37.6071 9.9757 38.1818 11.3746 38.1818 12.8333C38.1818 14.292 37.6071 15.691 36.5842 16.7224C35.5613 17.7539 34.1739 18.3333 32.7273 18.3333C31.2806 18.3333 29.8933 17.7539 28.8703 16.7224C27.8474 15.691 27.2727 14.292 27.2727 12.8333C27.2727 11.3746 27.8474 9.9757 28.8703 8.94425ZM20 20.1654C18.5459 20.1654 17.1252 20.6047 15.9211 21.4266C14.7248 22.2431 13.7968 23.4001 13.255 24.75C13.2479 24.769 13.2404 24.7878 13.2326 24.8065C12.9068 25.6367 12.7273 26.5449 12.7273 27.5V29.3333H27.2727V27.5C27.2727 26.5449 27.0932 25.6368 26.7674 24.8066C26.7596 24.7878 26.7521 24.769 26.745 24.75C26.2032 23.4001 25.2752 22.2431 24.0789 21.4266C22.8748 20.6047 21.4541 20.1654 20 20.1654ZM30.5219 24.585C30.7748 25.5154 30.9091 26.4935 30.9091 27.5V29.3333H36.3636V27.5001C36.3636 27.5001 36.3636 27.5002 36.3636 27.5001C36.3636 26.7382 36.1281 25.995 35.6899 25.3742C35.2516 24.7534 34.6325 24.2857 33.9185 24.0361C33.2045 23.7864 32.4311 23.7673 31.7058 23.9814C31.2753 24.1084 30.8745 24.3139 30.5219 24.585ZM28.9632 21.2257C29.4986 20.8991 30.0767 20.6417 30.6843 20.4624C32.1348 20.0342 33.6817 20.0725 35.1097 20.5717C36.5377 21.071 37.776 22.0064 38.6525 23.2481C39.5289 24.4897 39.9999 25.9758 40 27.4999V31.1667C40 32.1792 39.186 33 38.1818 33H1.81818C0.814028 33 0 32.1792 0 31.1667V27.5C0.00011054 25.976 0.471117 24.4897 1.34754 23.2481C2.22397 22.0064 3.46227 21.071 4.8903 20.5717C6.31834 20.0725 7.86516 20.0342 9.31573 20.4624C9.92332 20.6417 10.5014 20.8991 11.0368 21.2257C11.8 20.1175 12.763 19.1544 13.8826 18.3902C15.6885 17.1575 17.8192 16.4987 20 16.4987C22.1808 16.4987 24.3115 17.1575 26.1174 18.3902C27.237 19.1544 28.2 20.1175 28.9632 21.2257ZM9.47809 24.585C9.12554 24.3139 8.72471 24.1084 8.29423 23.9814C7.56894 23.7673 6.79553 23.7864 6.08152 24.0361C5.3675 24.2857 4.74835 24.7534 4.31014 25.3742C3.87195 25.995 3.63645 26.738 3.63636 27.5C3.63636 27.5 3.63636 27.5 3.63636 27.5V29.3333H9.09091V27.5C9.09091 26.4935 9.22515 25.5154 9.47809 24.585Z" fill="white"/>
</svg>
