<svg width="29" height="29" viewBox="0 0 29 29" fill="none" xmlns="http://www.w3.org/2000/svg">
<path d="M0.0058194 29L1.96622 21.7964C0.674469 19.582 -0.00419141 17.0636 1.94767e-05 14.5C1.94767e-05 6.49165 6.49166 0 14.5 0C22.5084 0 29 6.49165 29 14.5C29 22.5083 22.5084 29 14.5 29C11.9375 29.0041 9.42016 28.326 7.20651 27.0352L0.0058194 29ZM9.26696 7.69659C9.07971 7.70822 8.89674 7.75754 8.72901 7.84159C8.57172 7.93067 8.42813 8.04202 8.30271 8.17219C8.12871 8.33604 8.03011 8.47814 7.92426 8.61589C7.38836 9.31334 7.1001 10.1694 7.10501 11.049C7.10791 11.7595 7.29351 12.4511 7.58351 13.0978C8.17656 14.4057 9.15241 15.7905 10.4415 17.0737C10.7518 17.3826 11.0548 17.6929 11.3811 17.9814C12.981 19.3901 14.8875 20.4059 16.9491 20.9481L17.7741 21.0743C18.0424 21.0888 18.3106 21.0685 18.5803 21.0554C19.0026 21.0336 19.4149 20.9193 19.7882 20.7205C19.978 20.6227 20.1634 20.5162 20.3435 20.4015C20.3435 20.4015 20.4059 20.3609 20.5248 20.271C20.7205 20.126 20.8409 20.023 21.0033 19.8534C21.1236 19.7287 21.228 19.5822 21.3078 19.4155C21.4209 19.1791 21.534 18.7282 21.5804 18.3526C21.6152 18.0655 21.605 17.9089 21.6007 17.8118C21.5949 17.6566 21.4658 17.4957 21.3252 17.4275L20.4813 17.0491C20.4813 17.0491 19.2198 16.4995 18.4498 16.1486C18.3686 16.1133 18.2816 16.0931 18.1932 16.0892C18.0939 16.079 17.9937 16.0902 17.8992 16.1219C17.8046 16.1537 17.718 16.2053 17.6451 16.2733V16.2704C17.6378 16.2704 17.5407 16.3531 16.4923 17.6233C16.4321 17.7041 16.3493 17.7652 16.2542 17.7988C16.1592 17.8324 16.0563 17.8369 15.9587 17.8118C15.8642 17.7865 15.7717 17.7545 15.6818 17.7161C15.502 17.6407 15.4396 17.6117 15.3164 17.558L15.3091 17.5551C14.4796 17.193 13.7115 16.7038 13.0326 16.1051C12.8499 15.9456 12.6803 15.7716 12.5063 15.6034C11.9358 15.0571 11.4386 14.4391 11.0273 13.7648L10.9417 13.6271C10.8803 13.5345 10.8306 13.4347 10.7938 13.3298C10.7387 13.1167 10.8823 12.9456 10.8823 12.9456C10.8823 12.9456 11.2346 12.5599 11.3985 12.3511C11.5349 12.1776 11.6622 11.997 11.7798 11.8102C11.9509 11.5347 12.0046 11.252 11.9147 11.033C11.5087 10.0412 11.0882 9.05379 10.6561 8.07359C10.5705 7.87929 10.3168 7.74009 10.0862 7.71254C10.0079 7.70384 9.92961 7.69514 9.85131 7.68934C9.65659 7.67967 9.46146 7.68306 9.26696 7.69659Z" fill="white" fill-opacity="0.7"/>
</svg>
