<svg width="33" height="33" viewBox="0 0 33 33" fill="none" xmlns="http://www.w3.org/2000/svg">
<path fill-rule="evenodd" clip-rule="evenodd" d="M9.7 1.44982C10.6283 0.521516 11.8873 0 13.2001 0H19.7999C21.1127 0 22.3717 0.521516 23.3 1.44982C24.2283 2.37813 24.7498 3.63718 24.7498 4.95V6.6H28.0497C29.3625 6.6 30.6215 7.12152 31.5498 8.04982C32.4781 8.97813 32.9996 10.2372 32.9996 11.55V20.1823C33.0001 20.2076 33.0001 20.2329 32.9996 20.2581V28.05C32.9996 29.3628 32.4781 30.6219 31.5498 31.5502C30.6215 32.4785 29.3625 33 28.0497 33H4.95031C3.63752 33 2.3785 32.4785 1.45022 31.5502C0.521939 30.6219 0.0004368 29.3628 0.0004368 28.05V20.258C-0.000144222 20.2329 -0.000146976 20.2076 0.0004368 20.1824V11.55C0.0004368 10.2372 0.521939 8.97813 1.45022 8.04982C2.3785 7.12152 3.63752 6.6 4.95031 6.6H8.25022V4.95C8.25022 3.63718 8.77172 2.37813 9.7 1.44982ZM4.95031 9.9C4.51271 9.9 4.09304 10.0738 3.78361 10.3833C3.47418 10.6927 3.30035 11.1124 3.30035 11.55V19.091C7.41034 20.6158 11.8553 21.45 16.5 21.45L16.502 21.45C21.0095 21.4555 25.4787 20.6555 29.6996 19.0907V11.55C29.6996 11.1124 29.5258 10.6927 29.2164 10.3833C28.907 10.0738 28.4873 9.9 28.0497 9.9H4.95031ZM21.4499 6.6H11.5501V4.95C11.5501 4.51239 11.724 4.09271 12.0334 3.78327C12.3428 3.47384 12.7625 3.3 13.2001 3.3H19.7999C20.2375 3.3 20.6572 3.47384 20.9666 3.78327C21.276 4.09271 21.4499 4.51239 21.4499 4.95V6.6ZM29.6996 22.591C25.4518 24.0243 20.9929 24.7554 16.499 24.75C11.8847 24.7499 7.44627 23.991 3.30035 22.5915V28.05C3.30035 28.4876 3.47418 28.9073 3.78361 29.2167C4.09304 29.5262 4.51271 29.7 4.95031 29.7H28.0497C28.4873 29.7 28.907 29.5262 29.2164 29.2167C29.5258 28.9073 29.6996 28.4876 29.6996 28.05V22.591ZM14.85 18.15C14.85 17.2387 15.5888 16.5 16.5 16.5H16.5165C17.4277 16.5 18.1665 17.2387 18.1665 18.15C18.1665 19.0613 17.4277 19.8 16.5165 19.8H16.5C15.5888 19.8 14.85 19.0613 14.85 18.15Z" fill="#509AF1"/>
</svg>
