<svg width="162" height="275" viewBox="0 0 162 275" fill="none" xmlns="http://www.w3.org/2000/svg">
<path d="M46.9956 105.288C46.9956 104.072 47.4765 102.906 48.3326 102.047C49.1887 101.187 50.3498 100.704 51.5605 100.704H170.248C171.458 100.704 172.619 101.187 173.476 102.047C174.332 102.906 174.813 104.072 174.813 105.288C174.813 106.503 174.332 107.669 173.476 108.528C172.619 109.388 171.458 109.871 170.248 109.871H51.5605C50.3498 109.871 49.1887 109.388 48.3326 108.528C47.4765 107.669 46.9956 106.503 46.9956 105.288ZM46.9956 132.788C46.9956 131.572 47.4765 130.406 48.3326 129.547C49.1887 128.687 50.3498 128.204 51.5605 128.204H170.248C171.458 128.204 172.619 128.687 173.476 129.547C174.332 130.406 174.813 131.572 174.813 132.788C174.813 134.003 174.332 135.169 173.476 136.028C172.619 136.888 171.458 137.371 170.248 137.371H51.5605C50.3498 137.371 49.1887 136.888 48.3326 136.028C47.4765 135.169 46.9956 134.003 46.9956 132.788ZM51.5605 155.704C50.3498 155.704 49.1887 156.187 48.3326 157.047C47.4765 157.906 46.9956 159.072 46.9956 160.288C46.9956 161.503 47.4765 162.669 48.3326 163.528C49.1887 164.388 50.3498 164.871 51.5605 164.871H170.248C171.458 164.871 172.619 164.388 173.476 163.528C174.332 162.669 174.813 161.503 174.813 160.288C174.813 159.072 174.332 157.906 173.476 157.047C172.619 156.187 171.458 155.704 170.248 155.704H51.5605ZM46.9956 187.788C46.9956 186.572 47.4765 185.406 48.3326 184.547C49.1887 183.687 50.3498 183.204 51.5605 183.204H124.599C125.809 183.204 126.971 183.687 127.827 184.547C128.683 185.406 129.164 186.572 129.164 187.788C129.164 189.003 128.683 190.169 127.827 191.028C126.971 191.888 125.809 192.371 124.599 192.371H51.5605C50.3498 192.371 49.1887 191.888 48.3326 191.028C47.4765 190.169 46.9956 189.003 46.9956 187.788Z" fill="url(#paint0_linear_8_279)"/>
<path d="M128.621 18.362C128.621 13.4921 126.686 8.82166 123.242 5.37811C119.799 1.93457 115.128 0 110.259 0C105.389 0 100.718 1.93457 97.2746 5.37811C93.8311 8.82166 91.8965 13.4921 91.8965 18.362H82.7155C77.8456 18.362 73.1751 20.2966 69.7316 23.7401C66.288 27.1837 64.3535 31.8541 64.3535 36.7241H36.8104C34.3755 36.7241 32.0402 37.6913 30.3185 39.4131C28.5967 41.1349 27.6294 43.4701 27.6294 45.9051V238.706C27.6294 241.141 28.5967 243.477 30.3185 245.198C32.0402 246.92 34.3755 247.887 36.8104 247.887H131.311C133.745 247.887 136.08 246.919 137.802 245.197L190.198 192.801C191.92 191.08 192.887 188.745 192.888 186.31V45.9051C192.888 43.4701 191.92 41.1349 190.199 39.4131C188.477 37.6913 186.142 36.7241 183.707 36.7241H156.164C156.164 31.8541 154.229 27.1837 150.785 23.7401C147.342 20.2966 142.671 18.362 137.802 18.362H128.621ZM64.3535 45.9051V50.4956C64.3535 51.7131 64.8371 52.8807 65.698 53.7416C66.5589 54.6024 67.7265 55.0861 68.944 55.0861H151.573C152.791 55.0861 153.958 54.6024 154.819 53.7416C155.68 52.8807 156.164 51.7131 156.164 50.4956V45.9051H183.707V183.62H142.392C138.74 183.62 135.237 185.071 132.654 187.654C130.071 190.237 128.621 193.739 128.621 197.392V238.706H36.8104V45.9051H64.3535ZM119.44 18.362C119.44 20.797 118.472 23.1322 116.75 24.854C115.029 26.5758 112.693 27.543 110.259 27.543C107.824 27.543 105.488 26.5758 103.767 24.854C102.045 23.1322 101.078 20.797 101.078 18.362C101.078 15.9271 102.045 13.5918 103.767 11.8701C105.488 10.1483 107.824 9.18101 110.259 9.18101C112.693 9.18101 115.029 10.1483 116.75 11.8701C118.472 13.5918 119.44 15.9271 119.44 18.362ZM177.216 192.801L137.802 232.215V197.392C137.802 196.174 138.285 195.007 139.146 194.146C140.007 193.285 141.175 192.801 142.392 192.801H177.216Z" fill="url(#paint1_linear_8_279)"/>
<path d="M197.137 27.3798H165.129C165.129 22.5152 163.202 17.8498 159.772 14.4099C156.342 10.9701 151.69 9.0376 146.839 9.0376H197.137C203.201 9.0376 209.016 11.4532 213.304 15.753C217.591 20.0528 220 25.8846 220 31.9654V252.072C220 258.153 217.591 263.985 213.304 268.285C209.016 272.585 203.201 275 197.137 275H23.3795C17.3159 275 11.5006 272.585 7.21298 268.285C2.92536 263.985 0.516602 258.153 0.516602 252.072V31.9654C0.516602 25.8846 2.92536 20.0528 7.21298 15.753C11.5006 11.4532 17.3159 9.0376 23.3795 9.0376H73.6778C68.8269 9.0376 64.1747 10.9701 60.7446 14.4099C57.3145 17.8498 55.3875 22.5152 55.3875 27.3798H23.3795C22.1668 27.3798 21.0037 27.863 20.1462 28.7229C19.2887 29.5829 18.8069 30.7492 18.8069 31.9654V252.072C18.8069 253.288 19.2887 254.455 20.1462 255.315C21.0037 256.175 22.1668 256.658 23.3795 256.658H197.137C198.35 256.658 199.513 256.175 200.371 255.315C201.228 254.455 201.71 253.288 201.71 252.072V31.9654C201.71 30.7492 201.228 29.5829 200.371 28.7229C199.513 27.863 198.35 27.3798 197.137 27.3798Z" fill="url(#paint2_linear_8_279)"/>
<defs>
<linearGradient id="paint0_linear_8_279" x1="110.904" y1="100.704" x2="84.0535" y2="237.388" gradientUnits="userSpaceOnUse">
<stop stop-color="#50E9CE"/>
<stop offset="1" stop-color="#09B697"/>
</linearGradient>
<linearGradient id="paint1_linear_8_279" x1="110.259" y1="0" x2="-24.6886" y2="328.442" gradientUnits="userSpaceOnUse">
<stop stop-color="#50E9CE"/>
<stop offset="1" stop-color="#09B697"/>
</linearGradient>
<linearGradient id="paint2_linear_8_279" x1="110.258" y1="9.0376" x2="-12.8854" y2="380.044" gradientUnits="userSpaceOnUse">
<stop stop-color="#50E9CE"/>
<stop offset="1" stop-color="#09B697"/>
</linearGradient>
</defs>
</svg>
