<svg width="140" height="178" viewBox="0 0 140 178" fill="none" xmlns="http://www.w3.org/2000/svg">
<path d="M59.2722 24.3051C57.9915 23.7518 56.5544 23.6567 55.2099 24.0364C55.0298 24.065 54.8452 24.027 54.6918 23.9297C54.5384 23.8324 54.427 23.6827 54.379 23.5093C54.331 23.336 54.3499 23.1514 54.432 22.991C54.5141 22.8305 54.6536 22.7057 54.8237 22.6404C56.5284 22.1519 58.3553 22.2893 59.9648 23.0271C60.1074 23.1052 60.2198 23.2275 60.2843 23.375C60.3489 23.5225 60.3621 23.6869 60.3218 23.8425C60.2815 23.9981 60.19 24.1363 60.0616 24.2354C59.9332 24.3345 59.775 24.389 59.6119 24.3903C59.4929 24.3923 59.3757 24.3629 59.2722 24.3051ZM55.3564 27.0972C55.8551 26.5432 56.5416 26.1868 57.2877 26.0944C57.6839 26.014 58.0923 26.0112 58.4896 26.0863C58.8869 26.1614 59.2652 26.3128 59.6029 26.532C59.9407 26.7511 60.2312 27.0337 60.4578 27.3635C60.6845 27.6932 60.8428 28.0638 60.9238 28.4539V28.5194C60.9673 28.7193 60.9288 28.928 60.8165 29.0999C60.7041 29.2718 60.5272 29.393 60.3244 29.437L58.4731 29.7647C58.5198 29.5199 58.5198 29.2688 58.4731 29.0241C58.2733 27.7133 57.2078 26.7301 56.1423 26.9268C55.8091 27.0235 55.5043 27.1971 55.2529 27.433C55.0016 27.669 54.8111 27.9605 54.6972 28.2835C54.8259 27.8438 55.0535 27.4384 55.3631 27.0972H55.3564Z" fill="url(#paint0_linear_8_252)"/>
<path d="M55.9864 28.1346C56.5362 28.0134 57.086 28.5587 57.2082 29.2252C57.2573 29.5076 57.2427 29.7973 57.1654 30.0734L55.5771 30.3158C55.3848 30.1149 55.2572 29.8618 55.2106 29.5887C55.1648 29.377 55.1648 29.1581 55.2106 28.9465C55.2495 28.9802 55.2953 29.0052 55.3448 29.0199C55.3944 29.0345 55.4465 29.0384 55.4977 29.0313C55.5755 29.0149 55.6464 28.9754 55.701 28.918C55.7555 28.8607 55.7912 28.7881 55.8031 28.7102C55.8098 28.6574 55.8057 28.6038 55.7909 28.5526C55.7758 28.4492 55.7238 28.3546 55.6443 28.286C55.7459 28.2116 55.8627 28.1599 55.9864 28.1346ZM59.9327 35.2052C59.8501 35.1887 59.765 35.1894 59.6827 35.2071C59.6004 35.2248 59.5226 35.2592 59.4544 35.3081C59.3861 35.3571 59.3288 35.4195 59.286 35.4914C59.2432 35.5634 59.2159 35.6434 59.2057 35.7263C59.1648 36.0031 59.0688 36.269 58.9235 36.5088C58.7781 36.7486 58.5863 36.9573 58.359 37.123C58.1317 37.2887 57.8736 37.408 57.5995 37.474C57.3254 37.54 57.0408 37.5514 56.7622 37.5076C56.6777 37.489 56.5902 37.4877 56.5052 37.5038C56.4201 37.5199 56.3393 37.5531 56.2677 37.6014C56.196 37.6496 56.1351 37.7118 56.0886 37.7843C56.0421 37.8567 56.011 37.9378 55.9972 38.0226C55.9835 38.1074 55.9873 38.194 56.0086 38.2773C56.0298 38.3605 56.068 38.4386 56.1207 38.5067C56.1735 38.5748 56.2397 38.6314 56.3154 38.6732C56.391 38.715 56.4745 38.741 56.5606 38.7496C57.004 38.8195 57.4569 38.8018 57.8933 38.6975C58.3297 38.5933 58.7411 38.4046 59.1038 38.1423C59.4665 37.8799 59.7734 37.5491 60.0068 37.1688C60.2403 36.7885 60.3957 36.3663 60.4642 35.9262C60.4808 35.8439 60.4799 35.759 60.4617 35.677C60.4435 35.595 60.4083 35.5176 60.3583 35.4498C60.3083 35.382 60.2447 35.3253 60.1714 35.2832C60.0981 35.2411 60.0169 35.2145 59.9327 35.2052ZM108.706 139.556C108.706 141.453 107.946 143.271 106.594 144.612C105.243 145.953 103.409 146.706 101.497 146.706C99.5855 146.706 97.752 145.953 96.4001 144.612C95.0483 143.271 94.2888 141.453 94.2888 139.556C94.2888 137.66 95.0483 135.842 96.4001 134.501C97.752 133.16 99.5855 132.407 101.497 132.407C103.409 132.407 105.243 133.16 106.594 134.501C107.946 135.842 108.706 137.66 108.706 139.556Z" fill="url(#paint1_linear_8_252)"/>
<path d="M106.213 101.342L104.267 90.1218L107.234 77.9162C107.635 76.2134 107.635 74.4376 107.234 72.7287L108.243 69.2987H123.577C124.609 69.2987 125.599 68.8887 126.328 68.1588C127.058 67.4288 127.468 66.4389 127.468 65.4066C127.468 64.3743 127.058 63.3843 126.328 62.6544C125.599 61.9245 124.609 61.5144 123.577 61.5144H105.289C105.255 61.5159 105.223 61.5221 105.191 61.5327C104.952 61.5616 104.717 61.6104 104.486 61.6786C104.172 61.7383 103.866 61.8342 103.574 61.9645L103.465 62.0374C103.052 62.2663 102.683 62.5669 102.376 62.9253L102.34 62.9801C102.042 63.3403 101.813 63.7527 101.665 64.1964L99.3423 61.484L97.8649 52.9335V52.7632L97.8223 52.5807C97.0756 49.4402 95.5795 46.5274 93.4618 44.0915C91.3441 41.6556 88.668 39.769 85.6625 38.5933C86.5173 37.7094 87.1716 36.6516 87.5807 35.4919C87.9899 34.3323 88.1444 33.098 88.0336 31.8732C87.9456 30.7297 87.6358 29.6143 87.1216 28.5892C88.2528 23.965 88.3132 19.1434 87.298 14.4923C86.8704 10.6821 85.0239 7.17269 82.126 4.66291C79.2282 2.15312 75.4916 0.827097 71.6604 0.948863C68.2744 0.992275 64.9369 1.75948 61.8717 3.19901C61.5338 3.3782 61.1769 3.51895 60.8077 3.61864C60.6496 3.61864 60.4855 3.60039 60.3091 3.58215L60.1511 3.5639C59.3435 3.47338 58.5317 3.42668 57.7191 3.42403C56.4666 3.42403 55.2263 3.53958 53.9921 3.74635C51.0198 4.24833 48.3654 5.90257 46.6049 8.35004C45.7883 9.54792 45.2228 10.899 44.9427 12.3216C44.6627 13.7442 44.6738 15.2088 44.9755 16.6269C45.2066 18.2081 45.7234 19.7224 46.5077 21.109C46.2584 22.7328 46.2645 24.393 46.5381 26.0107L46.8907 28.0966C46.7254 28.5114 46.5387 28.9174 46.3314 29.3129C45.404 30.9353 45.0445 32.8209 45.3099 34.6707C45.5332 35.8342 45.9953 36.9386 46.6672 37.9142C47.3391 38.8899 48.206 39.7154 49.2132 40.3387C49.7315 42.8588 50.9934 45.1656 52.8359 46.9609C54.6784 48.7562 57.0169 49.9575 59.5491 50.4096C58.27 53.969 58.0359 57.8202 58.8743 61.5084L61.8048 79.7528L41.9599 81.4678C38.2818 81.6755 34.7974 83.1849 32.1298 85.7263C29.4621 88.2676 27.7851 91.6751 27.3984 95.3397L21.3185 124.896L7.0732 126.234H6.85432L6.64153 126.27C4.97504 126.548 3.44034 127.349 2.26021 128.558C1.08008 129.768 0.315944 131.322 0.0787318 132.995C-0.158481 134.668 0.143573 136.373 0.941046 137.863C1.73852 139.352 2.98991 140.549 4.51355 141.279L7.79064 142.8C7.28317 143.133 6.86308 143.583 6.56577 144.112C6.26845 144.641 6.1026 145.234 6.08217 145.84C6.04933 146.629 6.2514 147.409 6.66273 148.083C7.07407 148.756 7.67614 149.292 8.39255 149.623L28.0307 158.684C28.5665 158.924 29.1464 159.048 29.7331 159.049C30.4924 159.062 31.2384 158.849 31.8769 158.438C32.5153 158.026 33.0176 157.435 33.3203 156.738C33.5419 156.247 33.6626 155.716 33.6751 155.177C33.6876 154.638 33.5918 154.102 33.3932 153.6C33.7895 153.247 34.1101 152.816 34.3356 152.335L43.2123 133.203V157.395C40.9366 158.3 39.0474 159.971 37.8699 162.119C36.6925 164.267 36.3003 166.758 36.7611 169.164C37.2218 171.57 38.5065 173.74 40.3942 175.301C42.2818 176.862 44.6544 177.716 47.1035 177.716C49.5526 177.716 51.9252 176.862 53.8128 175.301C55.7005 173.74 56.9852 171.57 57.446 169.164C57.9067 166.758 57.5146 164.267 56.3371 162.119C55.1596 159.971 53.2705 158.3 50.9947 157.395V144.32C52.4904 145.029 53.7599 146.14 54.6617 147.528C55.5634 148.917 56.062 150.528 56.1018 152.183C56.1194 153.204 56.537 154.177 57.2649 154.892C57.9927 155.608 58.9725 156.009 59.993 156.009H66.7843C69.6478 162.051 74.0362 167.242 79.5168 171.07C84.9974 174.898 91.3808 177.232 98.0378 177.84C104.695 178.449 111.395 177.311 117.479 174.54C123.563 171.769 128.819 167.46 132.73 162.037C136.641 156.614 139.072 150.266 139.782 143.617C140.493 136.969 139.458 130.25 136.782 124.123C134.105 117.996 129.878 112.673 124.517 108.678C119.157 104.683 112.848 102.155 106.213 101.342ZM99.5977 71.1414L100.206 71.8773C100.739 72.501 101.116 73.2426 101.307 74.041C101.497 74.8393 101.495 75.6715 101.3 76.4688L98.1081 89.7386L97.5001 92.2989L95.1897 101.786C95.0038 102.567 94.6373 103.294 94.1197 103.909V106.469L93.9251 107.265C93.8145 107.691 93.6888 108.113 93.5481 108.53C93.3407 109.287 92.9761 109.992 92.4781 110.598C92.1326 110.903 91.7135 111.113 91.2621 111.206H91.2074C91.0268 111.247 90.8441 111.277 90.6602 111.298C90.2791 111.372 89.8929 111.416 89.505 111.431H89.0186C88.1214 111.418 87.2292 111.295 86.3617 111.066L86.0394 110.963L85.8205 110.884C84.4513 110.417 83.2046 109.648 82.1726 108.634C81.9088 108.366 81.7438 108.016 81.7044 107.643L81.6862 107.551C81.6672 107.295 81.6961 107.037 81.7713 106.791V106.742C81.8898 106.435 82.0583 106.15 82.2699 105.897C82.2699 105.897 82.1665 105.484 81.8321 104.535C81.6988 104.156 81.5609 103.779 81.4187 103.404C81.2776 103.057 81.2334 102.679 81.291 102.309H59.5127C59.9511 100.925 60.8158 99.7151 61.9832 98.8522C63.1505 97.9893 64.5607 97.5177 66.0121 97.5047H85.553L90.6298 76.6026L84.3006 69.2075L92.016 62.2929L99.5916 71.1414H99.5977ZM54.3022 35.51H54.2231C54.0956 35.519 53.9676 35.519 53.8401 35.51C53.2794 35.5337 52.7267 35.3712 52.268 35.0478C51.8094 34.7244 51.4707 34.2582 51.3047 33.722C51.2379 33.1139 51.3959 32.5057 51.7486 32.001C52.2715 30.9671 52.7153 29.8968 53.0679 28.796C53.082 28.7429 53.1068 28.6932 53.1409 28.6501L52.5329 24.9647C52.2212 23.126 52.469 21.236 53.2442 19.54C53.2138 19.54 53.2017 19.5157 53.1834 19.4852C53.1733 19.4659 53.1587 19.4493 53.1409 19.4366C55.3965 20.5799 58.0048 20.811 60.4368 20.0995C68.3407 18.7616 69.1311 23.5659 69.1311 23.5659C69.3 23.5034 69.4814 23.4825 69.6601 23.5051C70.3182 23.4876 70.9699 23.6387 71.5531 23.9441C72.1364 24.2494 72.632 24.6989 72.9926 25.2498C73.3533 25.8007 73.5672 26.4348 73.6138 27.0916C73.6605 27.7485 73.5385 28.4064 73.2594 29.0028C73.4783 29.8359 73.685 30.7968 73.8674 31.8976C74.2079 33.9045 74.9983 34.7984 75.9285 35.1694H75.8069L78.5672 43.2213C77.412 43.2517 76.275 43.3794 75.1442 43.5984C72.3292 44.693 69.7452 46.3107 67.5321 48.3662L66.0364 43.8234C64.6863 44.2377 63.2838 44.4568 61.8717 44.4741C56.722 44.4984 55.2871 40.6853 54.3082 35.51H54.3022ZM7.65687 132.309L26.3831 130.552L33.375 96.556C34.6518 90.1704 38.0566 87.8595 42.4949 87.5554L68.7602 85.3052H68.815V85.3721L80.3668 89.7508H66.0182C62.495 89.7637 59.0936 91.0417 56.4333 93.3522C53.773 95.6627 52.0307 98.8521 51.5236 102.339H46.5685C46.1369 102.338 45.7092 102.422 45.3102 102.586C44.9111 102.751 44.5485 102.992 44.2433 103.298C43.9381 103.603 43.6964 103.966 43.5319 104.365C43.3675 104.764 43.2837 105.192 43.2853 105.623V114.381C43.2587 114.481 43.2383 114.582 43.2245 114.685L42.9205 115.39L28.8151 145.798C28.6941 145.79 28.5751 145.763 28.4624 145.719L7.18264 135.806C6.83293 135.633 6.54627 135.355 6.36315 135.011C6.18003 134.667 6.10971 134.273 6.16213 133.887C6.21454 133.5 6.38705 133.14 6.65526 132.857C6.92348 132.574 7.27385 132.382 7.65687 132.309ZM63.3795 148.243C62.6181 145.281 61.0637 142.584 58.8835 140.441C56.7034 138.297 53.9801 136.79 51.0068 136.08V118.547H69.3196C65.2184 124.776 63.0288 132.069 63.0208 139.528C63.0329 142.459 63.3734 145.372 64.0422 148.224L63.3734 148.243H63.3795ZM101.531 164.723C97.6468 164.717 93.8173 163.806 90.3456 162.063C86.8739 160.321 83.8551 157.794 81.5281 154.683L81.3883 154.494C81.0108 154.011 80.6538 153.512 80.3182 152.998C79.8556 152.237 79.4335 151.451 79.0536 150.645C78.7496 150.037 78.4456 149.428 78.172 148.82C75.8745 143.132 75.7596 136.796 77.8492 131.028C79.9389 125.26 84.0857 120.469 89.4928 117.574C90.0765 117.251 90.6845 116.984 91.2986 116.722L91.785 116.509C92.393 116.242 93.0435 115.962 93.7001 115.749L93.9677 115.664C94.7794 115.379 95.6078 115.143 96.4483 114.959H96.5456L96.9711 114.861C100.421 114.196 103.972 114.26 107.395 115.051C110.819 115.842 114.038 117.342 116.847 119.453C119.655 121.565 121.991 124.241 123.702 127.311C125.413 130.38 126.463 133.774 126.783 137.273C127.103 140.773 126.686 144.301 125.56 147.63C124.434 150.959 122.623 154.015 120.244 156.601C117.865 159.187 114.971 161.246 111.748 162.645C108.525 164.044 105.044 164.752 101.531 164.723Z" fill="url(#paint2_linear_8_252)"/>
<defs>
<linearGradient id="paint0_linear_8_252" x1="57.0589" y1="22.4182" x2="57.8245" y2="29.5767" gradientUnits="userSpaceOnUse">
<stop stop-color="#86E2B0"/>
<stop offset="1" stop-color="#23C46D"/>
</linearGradient>
<linearGradient id="paint1_linear_8_252" x1="77.1616" y1="29.1617" x2="100.524" y2="140.087" gradientUnits="userSpaceOnUse">
<stop stop-color="#86E2B0"/>
<stop offset="1" stop-color="#23C46D"/>
</linearGradient>
<linearGradient id="paint2_linear_8_252" x1="57.5" y1="2.5" x2="78" y2="173" gradientUnits="userSpaceOnUse">
<stop stop-color="#86E2B0"/>
<stop offset="1" stop-color="#23C46D"/>
</linearGradient>
</defs>
</svg>
