<svg width="196" height="242" viewBox="0 0 196 242" fill="none" xmlns="http://www.w3.org/2000/svg">
<path d="M9.96565 116.663C9.41686 117.517 8.95548 118.423 8.58847 119.369C2.92279 130.994 -0.0144778 143.757 5.36565e-05 156.686C5.36565e-05 203.806 38.2507 242 85.4151 242C115.13 242 141.289 226.83 156.567 203.889L188.711 162.272C191.564 158.576 193.648 154.348 194.84 149.836C196.033 145.324 196.309 140.619 195.653 135.998C194.998 131.377 193.423 126.935 191.022 122.931C188.621 118.928 185.443 115.445 181.674 112.687C181.368 107.427 179.804 102.316 177.111 97.7851C174.418 93.2539 170.676 89.4345 166.199 86.6478C161.461 83.682 156.044 81.9704 150.46 81.6742C149.376 76.166 146.991 70.996 143.503 66.5943C140.015 62.1927 135.526 58.6867 130.408 56.368L133.813 51.5607C138.457 45.01 140.525 36.9808 139.622 29.0045C138.719 21.0282 134.909 13.663 128.917 8.31353C122.926 2.96409 115.173 0.00477871 107.137 5.78247e-06C99.1013 -0.00476714 91.3448 2.94533 85.347 8.28765C84.5139 7.63813 83.6584 7.01794 82.7818 6.42823C74.8442 1.09185 62.6236 -3.05027 49.7145 3.38967C43.2978 6.60208 37.8723 10.971 34.331 16.8742C31.1144 22.2716 29.734 28.5644 30.3962 34.8108C31.3043 44.2364 36.4498 52.7247 38.9317 56.8291L39.3176 57.464C39.885 58.404 40.4399 59.3514 40.9823 60.306C42.0336 62.5396 43.0078 64.8085 43.9031 67.1088L20.635 101.077C16.5133 105.863 12.935 111.09 9.96565 116.663ZM31.0621 112.181C31.5767 111.553 32.0988 110.941 32.6361 110.337L58.0457 73.2388C58.3301 73.0088 58.5799 72.7389 58.7872 72.4376L88.5024 29.1797C88.7568 28.8124 88.9438 28.4029 89.0548 27.9703L92.6188 22.7624C93.9257 20.8419 95.601 19.1995 97.5476 17.9302C99.4943 16.6609 101.674 15.7899 103.96 15.3676C106.246 14.9454 108.593 14.9803 110.865 15.4702C113.137 15.9602 115.29 16.8956 117.198 18.2222C119.106 19.5488 120.731 21.2403 121.981 23.1987C123.23 25.1571 124.078 27.3436 124.475 29.6316C124.872 31.9195 124.812 34.2635 124.296 36.5278C123.78 38.7921 122.82 40.9318 121.471 42.823L104.711 66.4587L84.5979 92.2865C83.9818 93.0784 83.7058 94.0823 83.8307 95.0774C83.9556 96.0725 84.4711 96.9773 85.2638 97.5927C86.0565 98.2081 87.0615 98.4838 88.0577 98.359C89.0538 98.2343 89.9596 97.7194 90.5757 96.9275L112.671 68.5449C115.874 68.0515 119.148 68.3325 122.22 69.3644C125.291 70.3963 128.07 72.1489 130.323 74.4752C132.576 76.8015 134.238 79.6337 135.169 82.7342C136.101 85.8347 136.274 89.113 135.674 92.2941L118.611 115.015C118.009 115.817 117.75 116.825 117.892 117.817C118.034 118.81 118.565 119.705 119.368 120.306C120.17 120.908 121.18 121.166 122.173 121.024C123.166 120.882 124.063 120.352 124.665 119.55L140.184 98.8776C142.971 97.388 146.101 96.6581 149.26 96.7617C152.419 96.8652 155.495 97.7983 158.178 99.4672C160.681 101.027 162.759 103.18 164.227 105.736C165.695 108.292 166.508 111.17 166.593 114.116L149.749 136.557C149.147 137.359 148.888 138.367 149.03 139.359C149.172 140.352 149.703 141.247 150.505 141.848C151.308 142.45 152.317 142.708 153.311 142.566C154.304 142.424 155.2 141.894 155.802 141.093L169.438 122.929C170.217 123.292 170.974 123.708 171.708 124.184L171.859 124.282L172.011 124.38C174.278 125.891 176.211 127.851 177.689 130.139C179.166 132.427 180.156 134.994 180.599 137.681C181.041 140.368 180.925 143.116 180.259 145.756C179.592 148.397 178.389 150.871 176.725 153.028L144.248 195.099C135.137 209.064 121.348 219.335 105.348 224.074C89.3492 228.812 72.184 227.709 56.9249 220.961C41.6657 214.213 29.3085 202.261 22.0648 187.244C14.821 172.227 13.1634 155.125 17.3888 138.999C18.6501 134.134 20.4363 129.42 22.7159 124.94L22.7764 124.826L22.7007 124.841L22.9807 124.426C25.2508 120.057 27.9597 115.96 31.0621 112.181ZM81.6998 25.7329L57.6522 60.7293C56.7774 58.5293 55.8412 56.3541 54.8449 54.2062C54.2622 52.9591 53.3391 51.4247 52.2948 49.6786C46.8694 40.6688 38.1069 26.0957 56.4869 16.912C63.4938 13.4124 70.4478 15.8538 76.0322 20.2076C78.1433 21.8478 80.0502 23.7601 81.6922 25.7254L81.6998 25.7329Z" fill="url(#paint0_linear_8_274)" fill-opacity="0.3"/>
<defs>
<linearGradient id="paint0_linear_8_274" x1="66" y1="66.5" x2="135" y2="191.5" gradientUnits="userSpaceOnUse">
<stop stop-color="#FFEDDB"/>
<stop offset="1" stop-color="#FF8000"/>
</linearGradient>
</defs>
</svg>
