<svg width="262" height="264" viewBox="0 0 262 264" fill="none" xmlns="http://www.w3.org/2000/svg">
<path d="M146.645 73.8016C146.83 73.4708 147.088 73.1872 147.399 72.9732C147.711 72.7591 148.067 72.6203 148.441 72.5676C150.52 72.1879 152.126 74.466 151.087 76.3644C149.967 78.2515 148.462 79.8787 146.67 81.1385C144.878 82.3984 142.841 83.2622 140.692 83.6731C136.157 84.4325 131.715 83.1985 128.408 80.4459C128.019 80.1557 127.723 79.7574 127.556 79.3001C127.389 78.8429 127.359 78.3466 127.47 77.8724C127.58 77.3983 127.826 76.9669 128.178 76.6315C128.529 76.2961 128.971 76.0712 129.448 75.9847C130.204 75.8898 130.96 76.0796 131.526 76.5542C132.661 77.4745 133.979 78.1385 135.392 78.501C136.805 78.8634 138.279 78.9158 139.713 78.6546C141.148 78.3934 142.51 77.8247 143.706 76.9872C144.902 76.1498 145.905 75.0632 146.645 73.8016ZM122.644 110.725C126.156 110.078 129.534 108.836 132.632 107.052C133.728 106.406 134.787 105.704 135.779 104.935C137.007 103.986 138.708 105.315 138.141 106.738C136.936 109.69 135.003 112.285 132.523 114.278C130.043 116.271 127.098 117.596 123.967 118.129C117.352 119.268 111.021 116.895 106.769 112.339C105.73 111.2 106.864 109.396 108.376 109.871C112.722 111.2 117.636 111.579 122.644 110.725ZM144.945 56.6212C145.512 56.906 146.079 57.0009 146.645 56.906C147.401 56.811 148.157 56.3364 148.535 55.3873C149.197 54.1533 148.724 52.5397 147.401 51.8752L147.392 51.8658C141.608 49.214 135.059 48.7752 128.975 50.6318C127.558 51.1064 126.802 52.5302 127.18 53.954C127.652 55.3778 129.07 56.1371 130.487 55.7574C135.213 54.3667 140.271 54.6515 144.812 56.5642L144.945 56.6117V56.6212ZM81.7283 68.3912C81.3324 68.4846 80.9201 68.4817 80.5256 68.3827C80.1311 68.2836 79.7659 68.0912 79.4604 67.8217C78.9573 67.3496 78.6564 66.6997 78.6212 66.0091C78.5859 65.3185 78.8191 64.6411 79.2714 64.1198L79.3092 64.0818C83.8516 59.6404 89.854 57.0206 96.1858 56.7161C97.6032 56.6212 98.9261 57.7602 98.9261 59.184C99.0206 60.6078 97.8867 61.8418 96.4693 61.9367C91.5771 62.2144 86.9291 64.1752 83.3063 67.4894L83.1457 67.6318C82.7677 68.0115 82.2952 68.2962 81.7283 68.3912ZM111.494 96.677L113.573 79.8764C114.045 76.1745 118.959 75.3203 120.754 78.5475L128.408 93.6396C128.776 94.3565 128.971 95.1505 128.976 95.9571C128.981 96.7637 128.796 97.5601 128.437 98.2815C128.078 99.003 127.555 99.6291 126.909 100.109C126.264 100.589 125.515 100.909 124.723 101.043L117.447 102.372C116.658 102.521 115.845 102.48 115.075 102.251C114.305 102.022 113.6 101.613 113.018 101.056C112.437 100.5 111.995 99.8128 111.73 99.0514C111.465 98.2899 111.384 97.4761 111.494 96.677ZM85.697 83.6731C86.453 83.5782 87.2089 83.7681 87.7759 84.2426C88.9102 85.163 90.2286 85.827 91.6413 86.1894C93.0541 86.5519 94.528 86.6043 95.9627 86.3431C97.3974 86.0818 98.7593 85.5131 99.9555 84.6757C101.152 83.8382 102.154 82.7517 102.895 81.49C103.273 80.8256 103.934 80.351 104.69 80.2561C106.769 79.8764 108.376 82.1544 107.336 84.0528C105.163 87.7547 101.383 90.5073 96.9418 91.3616C92.4061 92.1209 87.9649 90.887 84.6576 88.1343C82.8622 86.8055 83.6182 84.0528 85.697 83.6731Z" fill="url(#paint0_linear_8_267)" fill-opacity="0.61"/>
<path d="M167.41 23.0693C163.818 18.7321 158.903 16.1863 153.704 15.3378C148.126 14.4892 142.833 11.8492 139.146 7.60626C134.136 1.94906 126.385 -1.06811 118.444 0.346186C115.42 0.911906 112.584 2.04335 110.126 3.64622C106.817 5.81481 102.753 6.56911 98.7825 5.62624C95.9466 4.96623 92.9217 4.87195 89.8023 5.34338C81.8618 6.75768 75.7175 12.0377 72.8816 18.9207C70.7075 24.295 66.7373 28.7265 61.6327 31.5551C56.9063 34.1951 53.0306 38.6266 51.2345 44.1895C48.5877 52.2981 50.951 60.9725 56.6227 66.8183C58.5511 68.7417 59.9123 71.2309 60.47 73.9087C57.4149 76.1608 55.0499 79.218 53.6408 82.7369C52.2317 86.2558 51.8343 90.0969 52.4932 93.8286C53.1521 97.5604 54.8413 101.035 57.3708 103.862C59.9004 106.689 63.1702 108.756 66.8129 109.832L67.399 113.113C68.382 118.676 71.5866 123.437 76.0578 126.502C76.7006 127.784 77.4001 129.029 78.1563 130.226C68.1646 131.801 60.9805 137.863 55.8665 147.716L48.6823 161.614C43.5997 162.538 38.868 164.833 35.0016 168.251C31.1351 171.668 28.2818 176.078 26.7516 180.999L0 263.972H94.056C93.8101 263.521 93.5737 263.065 93.3471 262.605C93.0162 261.945 92.6854 261.285 92.3545 260.766C81.2947 241.626 87.8171 217.017 107.101 205.985L130.071 192.785C137.821 188.32 146.845 186.568 155.708 187.807C154.279 194.897 154.581 202.226 156.588 209.176C158.595 216.126 162.249 222.492 167.24 227.737C163.525 230.566 160.935 234.715 160.122 239.457L146.047 225.408C142.171 221.448 135.743 221.448 131.773 225.408C127.803 229.274 127.803 235.686 131.773 239.646L134.231 242.097C134.798 242.663 134.42 243.794 133.475 243.794H109.181C106.574 243.907 104.111 245.019 102.306 246.899C100.501 248.778 99.494 251.28 99.494 253.883C99.494 256.486 100.501 258.988 102.306 260.868C104.111 262.747 106.574 263.859 109.181 263.972H159.753C160.238 264.009 160.725 264.009 161.209 263.972H235.755C249.745 263.972 261.088 252.752 261.088 238.797C261.088 231.603 258.394 224.456 253.706 219.563L244.168 207.909C245.982 200.869 246.069 193.497 244.423 186.417C242.776 179.337 239.444 172.756 234.709 167.231C229.973 161.707 223.973 157.402 217.217 154.679C210.46 151.957 203.146 150.898 195.892 151.591C186.124 143.287 174.865 136.907 162.712 132.791C168.922 125.943 172.697 117.244 173.451 108.04C175.975 103.892 176.995 98.8852 176.107 93.8786L175.54 90.6728C178.606 88.4253 180.982 85.3677 182.399 81.8451C183.816 78.3224 184.218 74.4748 183.56 70.7364C182.901 66.998 181.208 63.5176 178.672 60.6878C176.136 57.858 172.857 55.7915 169.206 54.7213C168.894 52.0153 169.301 49.2527 170.435 46.8295C174.122 39.1923 173.177 29.9522 167.41 23.0693ZM176.91 223.909C171.728 219.5 167.909 213.712 165.9 207.221C163.89 200.729 163.772 193.801 165.56 187.245C167.348 180.689 170.968 174.776 175.998 170.194C181.027 165.612 187.259 162.551 193.967 161.368C200.674 160.185 207.581 160.929 213.881 163.512C220.181 166.096 225.614 170.413 229.548 175.959C233.481 181.506 235.752 188.054 236.097 194.84C236.441 201.625 234.844 208.368 231.491 214.283L176.91 223.909ZM98.168 178.784C99.1014 178.32 99.9235 177.66 100.579 176.851C103.036 173.645 102.564 169.119 99.4442 166.574L90.0858 159.031H90.0008L89.8968 158.936L104.738 161.011C108.708 161.576 112.395 158.748 112.962 154.788C113.434 151.959 112.016 149.225 109.748 147.716C113.718 148.282 117.405 145.453 117.972 141.493C118.228 139.582 117.716 137.646 116.547 136.11C115.378 134.573 113.648 133.56 111.733 133.29L96.0411 131.122C95.5685 131.046 91.5038 130.509 90.152 130.33C86.7684 126.786 84.2317 122.525 82.7315 117.865L78.4777 100.488L74.2239 101.11C71.5132 101.526 68.7447 100.913 66.4647 99.3928C64.1846 97.8726 62.5585 95.5553 61.907 92.8981C61.2555 90.2408 61.626 87.4365 62.9454 85.0384C64.2648 82.6402 66.4372 80.8222 69.0343 79.943L73.099 78.5476L69.7905 65.0268L69.7622 64.9326C68.1874 59.6608 67.7969 54.1076 68.6184 48.6681C70.7958 43.999 74.0754 39.9259 78.1764 36.7977C82.2774 33.6695 87.0774 31.5794 92.1655 30.7065L105.154 28.4436C106.261 28.4177 107.356 28.6828 108.328 29.2124C109.301 29.742 110.116 30.5174 110.693 31.4608C115.892 39.0037 124.967 42.8695 134.042 41.2666L147.588 38.8812C150.735 38.5337 153.908 39.2617 156.587 40.946C157.362 43.5672 157.835 46.3298 157.957 49.2055L157.967 49.3658L159.546 63.2448L163.676 63.3297C166.333 63.382 168.88 64.3947 170.844 66.1794C172.809 67.9642 174.056 70.3996 174.356 73.033C174.655 75.6664 173.985 78.3186 172.471 80.4966C170.957 82.6745 168.702 84.2301 166.125 84.8742L162.117 85.8736L164.111 103.468C164.393 111.307 161.824 118.984 156.879 125.083C151.933 131.182 144.944 135.292 137.199 136.656H137.171L119.399 139.862L119.012 139.938L123.833 141.21C125.338 141.627 126.708 142.429 127.806 143.537C128.904 144.645 129.691 146.021 130.09 147.528C130.508 149.072 130.501 150.701 130.071 152.242L123.644 176.191C123.038 178.496 121.544 180.469 119.486 181.679C117.428 182.889 114.974 183.238 112.659 182.649L98.168 178.784ZM128.181 176.474L134.061 154.693L135.715 155.127C137.227 155.504 138.456 156.824 138.74 158.333L139.496 161.916C139.685 162.576 140.252 163.236 141.103 163.424L143.088 163.99C145.546 164.65 146.964 167.102 146.302 169.553C145.64 172.005 143.183 173.419 140.725 172.759L138.74 172.193C137.984 172.005 137.133 172.193 136.566 172.853L134.108 175.587C133.068 176.813 131.367 177.285 129.854 176.907L128.181 176.474Z" fill="url(#paint1_linear_8_267)" fill-opacity="0.61"/>
<defs>
<linearGradient id="paint0_linear_8_267" x1="117.512" y1="82.7813" x2="87.1764" y2="66.1464" gradientUnits="userSpaceOnUse">
<stop stop-color="#FF7A9A"/>
<stop offset="1" stop-color="#FFC8D5"/>
</linearGradient>
<linearGradient id="paint1_linear_8_267" x1="139.5" y1="127.5" x2="27.5" y2="70" gradientUnits="userSpaceOnUse">
<stop stop-color="#FF7A9A"/>
<stop offset="1" stop-color="#FFC8D5"/>
</linearGradient>
</defs>
</svg>
