<svg width="249" height="250" viewBox="0 0 249 250" fill="none" xmlns="http://www.w3.org/2000/svg">
<path d="M83.6828 153.817C80.5386 157.518 78.992 162.315 79.3832 167.153C79.7743 171.991 82.0711 176.474 85.7684 179.615C89.4656 182.756 94.2604 184.298 99.098 183.902C103.936 183.507 108.42 181.205 111.564 177.504C114.708 173.803 116.254 169.006 115.863 164.168C115.472 159.33 113.175 154.848 109.478 151.707C105.781 148.566 100.986 147.023 96.1485 147.419C91.3109 147.815 86.8269 150.117 83.6828 153.817ZM88.3296 157.765C90.4257 155.298 93.415 153.764 96.6401 153.5C99.8651 153.236 103.062 154.264 105.527 156.358C107.991 158.452 109.523 161.441 109.783 164.666C110.044 167.891 109.013 171.089 106.917 173.556C104.821 176.024 101.831 177.558 98.6064 177.822C95.3814 178.086 92.1848 177.058 89.72 174.964C87.2552 172.87 85.724 169.881 85.4632 166.656C85.2024 163.431 86.2335 160.233 88.3296 157.765ZM160.95 159.397C158.177 157.041 156.454 153.679 156.161 150.051C155.868 146.423 157.028 142.825 159.386 140.049C161.744 137.274 165.107 135.547 168.735 135.251C172.363 134.954 175.959 136.11 178.732 138.466C181.505 140.822 183.228 144.184 183.521 147.812C183.815 151.441 182.655 155.039 180.297 157.814C177.938 160.59 174.575 162.316 170.947 162.613C167.319 162.91 163.723 161.753 160.95 159.397ZM166.072 115.698C164.699 114.531 163.57 113.106 162.748 111.502C161.926 109.898 161.429 108.148 161.284 106.352C161.138 104.555 161.348 102.747 161.902 101.031C162.455 99.3149 163.341 97.7242 164.508 96.3499C165.676 94.9755 167.102 93.8444 168.707 93.021C170.311 92.1977 172.061 91.6983 173.858 91.5513C175.654 91.4043 177.462 91.6126 179.177 92.1643C180.892 92.716 182.482 93.6004 183.855 94.7669C186.628 97.1227 188.35 100.485 188.644 104.113C188.937 107.742 187.777 111.339 185.419 114.115C183.061 116.891 179.698 118.617 176.07 118.914C172.441 119.21 168.845 118.054 166.072 115.698ZM131.98 68.7153C130.813 70.0897 129.927 71.6804 129.374 73.3965C128.82 75.1126 128.61 76.9206 128.756 78.7172C128.901 80.5139 129.399 82.264 130.22 83.8676C131.042 85.4712 132.172 86.8969 133.545 88.0634C134.918 89.2299 136.507 90.1142 138.222 90.666C139.938 91.2177 141.745 91.426 143.542 91.279C145.338 91.132 147.089 90.6326 148.693 89.8093C150.297 88.9859 151.724 87.8548 152.891 86.4804C155.249 83.7048 156.409 80.107 156.116 76.4785C155.822 72.8501 154.1 69.4881 151.327 67.1323C148.554 64.7765 144.958 63.6199 141.33 63.9167C137.701 64.2136 134.338 65.9397 131.98 68.7153ZM90.8999 95.8808C88.1269 93.525 86.4043 90.1631 86.111 86.5346C85.8176 82.9061 86.9776 79.3084 89.3357 76.5327C91.6938 73.7571 95.0568 72.031 98.685 71.7341C102.313 71.4372 105.909 72.5939 108.682 74.9497C111.455 77.3055 113.178 80.6674 113.471 84.2959C113.764 87.9244 112.605 91.5221 110.246 94.2978C107.888 97.0734 104.525 98.7995 100.897 99.0964C97.2689 99.3933 93.6728 98.2366 90.8999 95.8808Z" fill="#93A9FF"/>
<path d="M58.5005 70.6346C70.4573 58.4775 85.2729 49.5155 101.589 44.5709C124.496 36.5473 149.644 37.9382 171.515 48.4385C181.019 53.0305 189.511 59.4738 196.492 67.3908C203.473 75.3078 208.803 84.5395 212.171 94.5451C226.118 136.426 201.403 182.751 154.657 202.262C126.765 213.889 95.4676 213.719 74.919 201.809C69.0947 198.705 64.0979 194.252 60.3454 188.822C56.5929 183.393 54.1933 177.144 53.3469 170.597C50.9277 151.291 62.0656 138.491 70.1555 129.185L70.1831 129.153C75.5995 123.003 78.8013 119.009 77.7383 116.499C76.0332 115.61 74.1787 115.009 72.268 114.729C66.9807 114.274 61.9974 112.068 58.1071 108.461C54.2168 104.853 51.6418 100.05 50.7899 94.8113C50.131 90.4611 50.4838 86.0168 51.8211 81.8238C53.1583 77.6307 55.444 73.8018 58.5005 70.6346ZM185.72 165.359C193.816 156.461 199.451 145.605 202.07 133.866C204.688 122.126 204.199 109.908 200.651 98.4196C197.788 89.9401 193.261 82.1184 187.336 75.4127C181.41 68.707 174.206 63.2521 166.144 59.3674C147.184 50.288 125.39 49.1092 105.55 56.09C83.1094 63.8117 60.129 78.5249 62.7798 92.5835C64.1668 100.053 67.9227 101.245 74.9921 102.863C77.8854 103.057 80.683 103.975 83.1282 105.533C85.5733 107.091 87.5876 109.238 88.9862 111.778C93.0507 121.474 86.1206 129.471 79.3797 137.19C72.026 145.61 63.698 155.178 65.4473 169.094C66.1103 173.765 67.8691 178.211 70.58 182.07C73.2909 185.929 76.8769 189.092 81.0449 191.298C98.1713 201.228 125.859 201.105 149.967 191.035C163.731 185.408 175.972 176.606 185.689 165.348L185.72 165.359Z" fill="#93A9FF"/>
</svg>
