<svg width="265" height="293" viewBox="0 0 265 293" fill="none" xmlns="http://www.w3.org/2000/svg">
<path d="M75.7685 127.483C83.118 119.864 91.9321 113.806 101.683 109.67C111.433 105.533 121.92 103.405 132.514 103.412C153.149 103.412 173.678 111.4 189.26 127.483C220.528 159.543 220.528 211.679 189.26 243.739C181.917 251.366 173.104 257.43 163.352 261.567C153.6 265.704 143.11 267.827 132.514 267.81C111.142 267.81 90.9287 259.296 75.7685 243.739C60.6113 228.186 52.18 207.311 52.2911 185.611C52.2911 163.642 60.6082 143.04 75.7685 127.483V127.483ZM122.892 136.533C120.171 136.537 117.558 137.592 115.599 139.477C113.641 141.362 112.489 143.931 112.386 146.645C112.282 149.359 113.235 152.008 115.045 154.036C116.854 156.064 119.379 157.314 122.091 157.524V220.193C122.091 222.981 123.201 225.655 125.175 227.626C127.149 229.597 129.827 230.705 132.619 230.705C135.412 230.705 138.089 229.597 140.064 227.626C142.038 225.655 143.147 222.981 143.147 220.193V147.045C143.147 144.257 142.038 141.583 140.064 139.612C138.089 137.641 135.412 136.533 132.619 136.533H122.892Z" fill="url(#paint0_linear_8_245)"/>
<path d="M106.742 9.73179L132.477 51.8715L158.212 9.73179C161.784 3.6625 168.191 0 175.229 0H244.452C259.683 0 269.242 16.3243 261.889 29.5093C248.056 53.9617 228.486 74.714 204.851 89.9929C201.081 92.8759 196.891 95.1663 192.424 96.7842C219.882 116.227 237.855 148.624 237.855 185.322C237.855 244.791 190.639 293 132.393 293C74.1471 293 26.9307 244.791 26.9307 185.322C26.9307 148.593 44.9454 116.154 72.4349 96.7319C68.0341 95.1286 63.9095 92.8553 60.208 89.9929C36.5962 74.6866 17.032 53.9405 3.17022 29.5093C-4.28776 16.3243 5.27106 0 20.5022 0H89.7248C96.7627 0 103.17 3.6625 106.742 9.73179V9.73179ZM129 77.6973C146.518 77.1033 163.898 80.9753 179.494 88.9464C186.393 88.4189 192.986 85.8947 198.464 81.6842L198.779 81.4331L199.137 81.2238C221.338 66.8676 239.722 47.3724 252.719 24.4027C253.505 22.9705 253.905 21.3591 253.878 19.7267C253.851 18.0943 253.398 16.497 252.564 15.0914C251.731 13.6858 250.545 12.5202 249.122 11.709C247.7 10.8978 246.091 10.4689 244.452 10.4643H175.229C173.615 10.4548 172.028 10.8721 170.629 11.6737C169.23 12.4753 168.07 13.6323 167.267 15.0267L167.225 15.1L128.99 77.6973H129ZM66.9517 252.294C75.4353 261.081 85.6155 268.067 96.8799 272.833C108.144 277.598 120.26 280.045 132.498 280.024C157.183 280.024 180.502 270.188 198.149 252.294C234.284 215.355 234.284 155.29 198.149 118.351C189.638 109.588 179.444 102.62 168.175 97.8616C156.905 93.1029 144.79 90.6506 132.55 90.6506C120.31 90.6506 108.195 93.1029 96.9261 97.8616C85.6567 102.62 75.4632 109.588 66.9517 118.351C49.4023 136.247 39.6292 160.305 39.7459 185.322C39.7459 210.646 49.4097 234.4 66.9517 252.294Z" fill="url(#paint1_linear_8_245)"/>
<defs>
<linearGradient id="paint0_linear_8_245" x1="85.0733" y1="110.986" x2="156.742" y2="270.938" gradientUnits="userSpaceOnUse">
<stop stop-color="#C285FF"/>
<stop offset="0.995096" stop-color="#EBD6FF"/>
</linearGradient>
<linearGradient id="paint1_linear_8_245" x1="54.5003" y1="13.5" x2="189" y2="290.5" gradientUnits="userSpaceOnUse">
<stop stop-color="#C285FF"/>
<stop offset="0.995096" stop-color="#EBD6FF"/>
</linearGradient>
</defs>
</svg>
